<svg width="144" height="51" viewBox="0 0 144 51" fill="none" xmlns="http://www.w3.org/2000/svg">
<mask id="path-1-outside-1_278_2" maskUnits="userSpaceOnUse" x="-0.375" y="-0.1875" width="144" height="51" fill="black">
<rect fill="white" x="-0.375" y="-0.1875" width="144" height="51"/>
<path d="M25.8438 42.4062C25.8438 43.8229 25.75 45.0312 25.5625 46.0312C25.3958 47.0312 25.1562 47.8438 24.8438 48.4688C24.5312 49.0938 24.1458 49.5521 23.6875 49.8438C23.25 50.1354 22.7708 50.2812 22.25 50.2812C21.8542 50.2812 21.4167 50.1458 20.9375 49.875C20.4583 49.6042 20 49.2708 19.5625 48.875C19.1458 48.4792 18.7917 48.0729 18.5 47.6562C18.2292 47.2396 18.0938 46.875 18.0938 46.5625C18.0938 46.3542 18.1146 46.2188 18.1562 46.1562C18.2188 46.1146 18.2917 46.0938 18.375 46.0938C18.4792 46.1146 18.5938 46.1458 18.7188 46.1875C18.8646 46.2292 19.0208 46.25 19.1875 46.25C19.7708 46.25 20.1875 45.8854 20.4375 45.1562C20.7083 44.4062 20.8438 43.2188 20.8438 41.5938V31.5312H17.5312C17.1979 31.5312 16.8854 31.4271 16.5938 31.2188C16.3229 31.0104 16.0833 30.75 15.875 30.4375C15.6667 30.125 15.5 29.7812 15.375 29.4062C15.2708 29.0312 15.2188 28.6771 15.2188 28.3438C15.2188 27.9896 15.2917 27.6875 15.4375 27.4375C15.6042 27.1875 15.8542 27.0625 16.1875 27.0625H20.8438V6.25C18.5938 6.39583 16.5417 6.72917 14.6875 7.25C12.8333 7.77083 11.2396 8.5625 9.90625 9.625C8.57292 10.6875 7.53125 12.0729 6.78125 13.7812C6.05208 15.4688 5.6875 17.5729 5.6875 20.0938C5.6875 21.1979 5.79167 22.1979 6 23.0938C6.22917 23.9688 6.52083 24.7604 6.875 25.4688C7.22917 26.1771 7.61458 26.8021 8.03125 27.3438C8.46875 27.8854 8.89583 28.3646 9.3125 28.7812C9.66667 28.6771 9.91667 28.7188 10.0625 28.9062C10.2083 29.0938 10.2812 29.3542 10.2812 29.6875C10.2812 30.1042 10.1875 30.5417 10 31C9.83333 31.4375 9.60417 31.8438 9.3125 32.2188C9.02083 32.5729 8.6875 32.875 8.3125 33.125C7.95833 33.3542 7.59375 33.4688 7.21875 33.4688C7.05208 33.4688 6.88542 33.4479 6.71875 33.4062C6.57292 33.3646 6.41667 33.2708 6.25 33.125C5.79167 32.7917 5.23958 32.25 4.59375 31.5C3.94792 30.7292 3.33333 29.7812 2.75 28.6562C2.16667 27.5312 1.66667 26.25 1.25 24.8125C0.833333 23.3542 0.625 21.7812 0.625 20.0938C0.625 13.9479 2.58333 9.26042 6.5 6.03125C10.4375 2.80208 16.2396 1.1875 23.9062 1.1875C24.4896 1.1875 25.2188 1.19792 26.0938 1.21875C26.9896 1.21875 27.9375 1.21875 28.9375 1.21875C29.9375 1.21875 30.9479 1.22917 31.9688 1.25C33.0104 1.27083 33.9688 1.28125 34.8438 1.28125C35.7396 1.28125 36.5 1.29167 37.125 1.3125C37.7708 1.3125 38.2083 1.3125 38.4375 1.3125C38.75 1.3125 39.0104 1.29167 39.2188 1.25C39.4271 1.1875 39.5938 1.125 39.7188 1.0625C39.8646 1 39.9688 0.947917 40.0312 0.90625C40.1146 0.84375 40.1875 0.8125 40.25 0.8125C40.3542 0.8125 40.4583 0.885417 40.5625 1.03125C40.6667 1.15625 40.7604 1.32292 40.8438 1.53125C40.9271 1.71875 40.9896 1.9375 41.0312 2.1875C41.0938 2.4375 41.125 2.6875 41.125 2.9375C41.125 3.3125 41.0625 3.70833 40.9375 4.125C40.8333 4.52083 40.6562 4.88542 40.4062 5.21875C40.1562 5.53125 39.8438 5.79167 39.4688 6C39.1146 6.20833 38.6875 6.3125 38.1875 6.3125C38 6.3125 37.6562 6.3125 37.1562 6.3125C36.6562 6.29167 36.0521 6.28125 35.3438 6.28125C34.6562 6.26042 33.8958 6.25 33.0625 6.25C32.2292 6.22917 31.3854 6.21875 30.5312 6.21875C29.6979 6.19792 28.875 6.1875 28.0625 6.1875C27.25 6.16667 26.5104 6.14583 25.8438 6.125V27.0625H33.8438C34.1771 26.8125 34.4271 26.75 34.5938 26.875C34.7604 27 34.8542 27.2292 34.875 27.5625C34.9167 27.8958 34.8958 28.2917 34.8125 28.75C34.75 29.2083 34.6354 29.6458 34.4688 30.0625C34.3229 30.4583 34.1458 30.8021 33.9375 31.0938C33.7292 31.3854 33.5 31.5312 33.25 31.5312H25.8438V42.4062Z"/>
<path d="M61.8125 35.4375C61.8542 35.1875 61.9896 34.9792 62.2188 34.8125C62.4688 34.6458 62.75 34.5312 63.0625 34.4688C63.375 34.4062 63.6979 34.4062 64.0312 34.4688C64.3854 34.5312 64.6875 34.6771 64.9375 34.9062C65.2083 35.1146 65.3958 35.4167 65.5 35.8125C65.625 36.1875 65.6146 36.6771 65.4688 37.2812C65.2812 38.1562 64.9688 38.9792 64.5312 39.75C64.1146 40.5 63.5833 41.1667 62.9375 41.75C62.2917 42.3333 61.5312 42.7917 60.6562 43.125C59.7812 43.4583 58.8021 43.625 57.7188 43.625C57.1354 43.625 56.5833 43.5938 56.0625 43.5312C55.5625 43.4688 55.0729 43.3542 54.5938 43.1875C53.8021 44.5625 52.7812 45.6667 51.5312 46.5C50.2812 47.3542 48.7396 47.7812 46.9062 47.7812C45.2812 47.7812 43.8854 47.4583 42.7188 46.8125C41.5521 46.1875 40.5833 45.3333 39.8125 44.25C39.0417 43.1458 38.4688 41.875 38.0938 40.4375C37.7396 39 37.5625 37.4792 37.5625 35.875C37.5625 33.5208 37.8333 31.4167 38.375 29.5625C38.9375 27.6875 39.5833 26.1042 40.3125 24.8125C41.0417 23.5 41.7604 22.5 42.4688 21.8125C43.1979 21.125 43.7396 20.7812 44.0938 20.7812C44.5104 20.7812 44.8854 20.9688 45.2188 21.3438C45.5729 21.6979 45.8229 22.125 45.9688 22.625C46.1354 23.1042 46.1771 23.5938 46.0938 24.0938C46.0312 24.5938 45.7917 24.9792 45.375 25.25C45.125 25.6458 44.8229 26.1042 44.4688 26.625C44.1354 27.1458 43.8125 27.8021 43.5 28.5938C43.2083 29.3646 42.9583 30.3125 42.75 31.4375C42.5417 32.5625 42.4375 33.9167 42.4375 35.5C42.4375 36.8542 42.5521 38.0312 42.7812 39.0312C43.0312 40.0312 43.3646 40.875 43.7812 41.5625C44.2188 42.2292 44.7083 42.7292 45.25 43.0625C45.8125 43.3958 46.4062 43.5625 47.0312 43.5625C47.9479 43.5625 48.6979 43.3438 49.2812 42.9062C49.8854 42.4479 50.3958 41.8542 50.8125 41.125C49.3125 39.8333 48.1667 38.1979 47.375 36.2188C46.6042 34.2188 46.2188 32.0625 46.2188 29.75C46.2188 28.75 46.3229 27.8021 46.5312 26.9062C46.7604 25.9896 47.0833 25.1875 47.5 24.5C47.9375 23.8125 48.4792 23.2708 49.125 22.875C49.7708 22.4583 50.5208 22.25 51.375 22.25C52.125 22.25 52.8333 22.5208 53.5 23.0625C54.1667 23.6042 54.75 24.3542 55.25 25.3125C55.75 26.2708 56.1354 27.4062 56.4062 28.7188C56.6979 30.0312 56.8438 31.4583 56.8438 33C56.8438 34.1875 56.7708 35.3646 56.625 36.5312C56.4792 37.6979 56.25 38.8229 55.9375 39.9062C56.1667 39.9896 56.375 40.0417 56.5625 40.0625C56.7708 40.0625 56.9896 40.0625 57.2188 40.0625C57.9062 40.0625 58.5104 39.9375 59.0312 39.6875C59.5729 39.4375 60.0312 39.1042 60.4062 38.6875C60.7812 38.2708 61.0833 37.7812 61.3125 37.2188C61.5417 36.6562 61.7083 36.0625 61.8125 35.4375ZM49.5938 29.5C49.5938 30.9375 49.8125 32.3021 50.25 33.5938C50.7083 34.8854 51.3021 36.0104 52.0312 36.9688C52.1562 35.9479 52.2188 34.9688 52.2188 34.0312C52.2188 32.9479 52.1979 31.9479 52.1562 31.0312C52.1354 30.0938 52.0625 29.2917 51.9375 28.625C51.8333 27.9583 51.6771 27.4375 51.4688 27.0625C51.2812 26.6667 51.0208 26.4688 50.6875 26.4688C49.9583 26.4688 49.5938 27.4792 49.5938 29.5Z"/>
<path d="M85.25 35.4375C85.2917 35.1875 85.4271 34.9792 85.6562 34.8125C85.9062 34.6458 86.1875 34.5312 86.5 34.4688C86.8125 34.4062 87.1354 34.4062 87.4688 34.4688C87.8229 34.5312 88.125 34.6771 88.375 34.9062C88.6458 35.1146 88.8333 35.4167 88.9375 35.8125C89.0625 36.1875 89.0521 36.6771 88.9062 37.2812C88.7188 38.1562 88.4062 38.9792 87.9688 39.75C87.5521 40.5 87.0208 41.1667 86.375 41.75C85.7292 42.3333 84.9688 42.7917 84.0938 43.125C83.2188 43.4583 82.2396 43.625 81.1562 43.625C80.5729 43.625 80.0208 43.5938 79.5 43.5312C79 43.4688 78.5104 43.3542 78.0312 43.1875C77.2396 44.5625 76.2188 45.6667 74.9688 46.5C73.7188 47.3542 72.1771 47.7812 70.3438 47.7812C68.7188 47.7812 67.3229 47.4583 66.1562 46.8125C64.9896 46.1875 64.0208 45.3333 63.25 44.25C62.4792 43.1458 61.9062 41.875 61.5312 40.4375C61.1771 39 61 37.4792 61 35.875C61 33.5208 61.2708 31.4167 61.8125 29.5625C62.375 27.6875 63.0208 26.1042 63.75 24.8125C64.4792 23.5 65.1979 22.5 65.9062 21.8125C66.6354 21.125 67.1771 20.7812 67.5312 20.7812C67.9479 20.7812 68.3229 20.9688 68.6562 21.3438C69.0104 21.6979 69.2604 22.125 69.4062 22.625C69.5729 23.1042 69.6146 23.5938 69.5312 24.0938C69.4688 24.5938 69.2292 24.9792 68.8125 25.25C68.5625 25.6458 68.2604 26.1042 67.9062 26.625C67.5729 27.1458 67.25 27.8021 66.9375 28.5938C66.6458 29.3646 66.3958 30.3125 66.1875 31.4375C65.9792 32.5625 65.875 33.9167 65.875 35.5C65.875 36.8542 65.9896 38.0312 66.2188 39.0312C66.4688 40.0312 66.8021 40.875 67.2188 41.5625C67.6562 42.2292 68.1458 42.7292 68.6875 43.0625C69.25 43.3958 69.8438 43.5625 70.4688 43.5625C71.3854 43.5625 72.1354 43.3438 72.7188 42.9062C73.3229 42.4479 73.8333 41.8542 74.25 41.125C72.75 39.8333 71.6042 38.1979 70.8125 36.2188C70.0417 34.2188 69.6562 32.0625 69.6562 29.75C69.6562 28.75 69.7604 27.8021 69.9688 26.9062C70.1979 25.9896 70.5208 25.1875 70.9375 24.5C71.375 23.8125 71.9167 23.2708 72.5625 22.875C73.2083 22.4583 73.9583 22.25 74.8125 22.25C75.5625 22.25 76.2708 22.5208 76.9375 23.0625C77.6042 23.6042 78.1875 24.3542 78.6875 25.3125C79.1875 26.2708 79.5729 27.4062 79.8438 28.7188C80.1354 30.0312 80.2812 31.4583 80.2812 33C80.2812 34.1875 80.2083 35.3646 80.0625 36.5312C79.9167 37.6979 79.6875 38.8229 79.375 39.9062C79.6042 39.9896 79.8125 40.0417 80 40.0625C80.2083 40.0625 80.4271 40.0625 80.6562 40.0625C81.3438 40.0625 81.9479 39.9375 82.4688 39.6875C83.0104 39.4375 83.4688 39.1042 83.8438 38.6875C84.2188 38.2708 84.5208 37.7812 84.75 37.2188C84.9792 36.6562 85.1458 36.0625 85.25 35.4375ZM73.0312 29.5C73.0312 30.9375 73.25 32.3021 73.6875 33.5938C74.1458 34.8854 74.7396 36.0104 75.4688 36.9688C75.5938 35.9479 75.6562 34.9688 75.6562 34.0312C75.6562 32.9479 75.6354 31.9479 75.5938 31.0312C75.5729 30.0938 75.5 29.2917 75.375 28.625C75.2708 27.9583 75.1146 27.4375 74.9062 27.0625C74.7188 26.6667 74.4583 26.4688 74.125 26.4688C73.3958 26.4688 73.0312 27.4792 73.0312 29.5Z"/>
<path d="M92.4375 47.7812C91.1875 47.7812 90.0521 47.5625 89.0312 47.125C88.0104 46.6875 87.1354 46.0417 86.4062 45.1875C85.6979 44.3125 85.1458 43.2396 84.75 41.9688C84.375 40.6771 84.1875 39.1875 84.1875 37.5C84.1875 35.0417 84.5312 32.8542 85.2188 30.9375C85.9062 29 86.8438 27.3438 88.0312 25.9688C89.2188 24.5729 90.5938 23.4688 92.1562 22.6562C93.7188 21.8229 95.375 21.2812 97.125 21.0312V6.5625C97.125 6.10417 97.0833 5.73958 97 5.46875C96.9375 5.19792 96.8646 4.98958 96.7812 4.84375C96.7188 4.67708 96.6458 4.55208 96.5625 4.46875C96.5 4.36458 96.4688 4.26042 96.4688 4.15625C96.4688 4.03125 96.5312 3.92708 96.6562 3.84375C96.7812 3.76042 96.9479 3.6875 97.1562 3.625C97.3646 3.5625 97.5833 3.52083 97.8125 3.5C98.0625 3.45833 98.3021 3.4375 98.5312 3.4375C99.5938 3.4375 100.427 3.71875 101.031 4.28125C101.656 4.82292 101.969 5.47917 101.969 6.25V40.625C101.969 40.9792 102.01 41.3333 102.094 41.6875C102.177 42.0208 102.302 42.3333 102.469 42.625C102.656 42.8958 102.885 43.125 103.156 43.3125C103.448 43.4792 103.781 43.5625 104.156 43.5625C104.802 43.5625 105.354 43.3333 105.812 42.875C106.292 42.4167 106.698 41.8438 107.031 41.1562C107.385 40.4688 107.667 39.7292 107.875 38.9375C108.104 38.125 108.292 37.3646 108.438 36.6562C108.562 35.9896 108.771 35.5104 109.062 35.2188C109.354 34.9062 109.656 34.75 109.969 34.75C110.219 34.75 110.479 34.8333 110.75 35C111.021 35.1458 111.26 35.3438 111.469 35.5938C111.698 35.8438 111.875 36.125 112 36.4375C112.146 36.75 112.219 37.0625 112.219 37.375C112.219 37.4167 112.219 37.4688 112.219 37.5312C112.219 37.5938 112.198 37.6875 112.156 37.8125C111.885 38.875 111.51 39.9896 111.031 41.1562C110.573 42.3229 109.969 43.3958 109.219 44.375C108.49 45.3542 107.615 46.1667 106.594 46.8125C105.573 47.4583 104.375 47.7812 103 47.7812C101.896 47.7812 100.927 47.5521 100.094 47.0938C99.2604 46.6354 98.6042 46.0312 98.125 45.2812C97.4167 46.0104 96.5938 46.6042 95.6562 47.0625C94.7396 47.5417 93.6667 47.7812 92.4375 47.7812ZM93.4062 43.5625C94.2396 43.5625 94.9583 43.3229 95.5625 42.8438C96.1875 42.3646 96.7083 41.7708 97.125 41.0625V25.25C96.0833 25.4375 95.0729 25.7917 94.0938 26.3125C93.1354 26.8125 92.2812 27.5208 91.5312 28.4375C90.8021 29.3542 90.2188 30.5208 89.7812 31.9375C89.3438 33.3333 89.125 35.0312 89.125 37.0312C89.125 38.1979 89.2396 39.1979 89.4688 40.0312C89.7188 40.8438 90.0312 41.5104 90.4062 42.0312C90.8021 42.5521 91.2604 42.9375 91.7812 43.1875C92.3021 43.4375 92.8438 43.5625 93.4062 43.5625Z"/>
<path d="M112.094 15.2188C111.573 15.2188 111.073 15.1146 110.594 14.9062C110.135 14.6979 109.729 14.4167 109.375 14.0625C109.042 13.7083 108.771 13.3021 108.562 12.8438C108.354 12.3646 108.25 11.8542 108.25 11.3125C108.25 10.75 108.354 10.2292 108.562 9.75C108.771 9.27083 109.042 8.86458 109.375 8.53125C109.729 8.17708 110.135 7.90625 110.594 7.71875C111.073 7.51042 111.573 7.40625 112.094 7.40625C112.656 7.40625 113.177 7.51042 113.656 7.71875C114.135 7.90625 114.542 8.17708 114.875 8.53125C115.229 8.86458 115.5 9.27083 115.688 9.75C115.896 10.2292 116 10.75 116 11.3125C116 11.8542 115.896 12.3646 115.688 12.8438C115.5 13.3021 115.229 13.7083 114.875 14.0625C114.542 14.4167 114.135 14.6979 113.656 14.9062C113.177 15.1146 112.656 15.2188 112.094 15.2188ZM113.562 40.625C113.562 40.7708 113.573 41.0104 113.594 41.3438C113.615 41.6562 113.677 41.9792 113.781 42.3125C113.885 42.6458 114.052 42.9375 114.281 43.1875C114.51 43.4375 114.833 43.5625 115.25 43.5625C115.875 43.5625 116.417 43.3333 116.875 42.875C117.354 42.4167 117.76 41.8438 118.094 41.1562C118.448 40.4688 118.74 39.7292 118.969 38.9375C119.198 38.125 119.385 37.3646 119.531 36.6562C119.656 36.0104 119.844 35.5417 120.094 35.25C120.365 34.9583 120.646 34.8021 120.938 34.7812C121.25 34.7396 121.552 34.8125 121.844 35C122.156 35.1875 122.427 35.4375 122.656 35.75C122.906 36.0417 123.083 36.375 123.188 36.75C123.312 37.125 123.333 37.4792 123.25 37.8125C122.958 38.875 122.573 39.9896 122.094 41.1562C121.635 42.3229 121.042 43.3958 120.312 44.375C119.583 45.3542 118.708 46.1667 117.688 46.8125C116.667 47.4583 115.469 47.7812 114.094 47.7812C113.24 47.7812 112.479 47.6146 111.812 47.2812C111.146 46.9688 110.583 46.5417 110.125 46C109.667 45.4583 109.312 44.8229 109.062 44.0938C108.833 43.3646 108.719 42.5938 108.719 41.7812V24.6875C108.719 24.0833 108.667 23.6458 108.562 23.375C108.479 23.1042 108.438 22.8542 108.438 22.625C108.438 22.3125 108.604 22.0625 108.938 21.875C109.271 21.6667 109.667 21.5625 110.125 21.5625C111.188 21.5625 112.021 21.8438 112.625 22.4062C113.25 22.9479 113.562 23.6042 113.562 24.375V40.625Z"/>
<path d="M134.5 27.375C134.5 28.5625 134.292 29.7812 133.875 31.0312C133.479 32.2812 132.875 33.4688 132.062 34.5938C131.271 35.6979 130.281 36.6979 129.094 37.5938C127.927 38.4688 126.573 39.1354 125.031 39.5938C125.24 40.1354 125.51 40.6562 125.844 41.1562C126.198 41.6354 126.615 42.0521 127.094 42.4062C127.573 42.7604 128.125 43.0417 128.75 43.25C129.396 43.4583 130.135 43.5625 130.969 43.5625C132.219 43.5625 133.292 43.3333 134.188 42.875C135.083 42.3958 135.833 41.7708 136.438 41C137.062 40.2292 137.562 39.3646 137.938 38.4062C138.312 37.4479 138.594 36.4792 138.781 35.5C138.927 34.7917 139.219 34.3229 139.656 34.0938C140.115 33.8438 140.573 33.7812 141.031 33.9062C141.51 34.0312 141.917 34.3021 142.25 34.7188C142.604 35.1146 142.75 35.5938 142.688 36.1562C142.604 36.8021 142.458 37.5417 142.25 38.375C142.062 39.2083 141.771 40.0521 141.375 40.9062C140.979 41.7604 140.469 42.6042 139.844 43.4375C139.24 44.25 138.49 44.9792 137.594 45.625C136.698 46.2708 135.646 46.7917 134.438 47.1875C133.229 47.5833 131.844 47.7812 130.281 47.7812C128.823 47.7812 127.406 47.4896 126.031 46.9062C124.677 46.3438 123.469 45.5312 122.406 44.4688C121.365 43.3854 120.521 42.0625 119.875 40.5C119.25 38.9167 118.938 37.125 118.938 35.125C118.938 33.1042 119.219 31.2292 119.781 29.5C120.344 27.75 121.083 26.2396 122 24.9688C122.917 23.6979 123.958 22.7083 125.125 22C126.292 21.2708 127.49 20.9062 128.719 20.9062C129.615 20.9062 130.417 21.0625 131.125 21.375C131.854 21.6875 132.469 22.1354 132.969 22.7188C133.469 23.2812 133.844 23.9583 134.094 24.75C134.365 25.5417 134.5 26.4167 134.5 27.375ZM124.188 34.9375C124.188 35.125 124.198 35.3125 124.219 35.5C124.24 35.6875 124.25 35.8854 124.25 36.0938C125.042 35.7188 125.76 35.2396 126.406 34.6562C127.052 34.0729 127.604 33.4062 128.062 32.6562C128.521 31.9062 128.875 31.0938 129.125 30.2188C129.375 29.3229 129.5 28.3958 129.5 27.4375C129.5 26.7292 129.375 26.1771 129.125 25.7812C128.896 25.3854 128.573 25.1875 128.156 25.1875C127.635 25.1875 127.167 25.3646 126.75 25.7188C126.354 26.0729 126 26.5417 125.688 27.125C125.396 27.6875 125.146 28.3333 124.938 29.0625C124.75 29.7708 124.594 30.4896 124.469 31.2188C124.344 31.9479 124.26 32.6458 124.219 33.3125C124.177 33.9583 124.167 34.5 124.188 34.9375Z"/>
</mask>
<path d="M25.8438 42.4062C25.8438 43.8229 25.75 45.0312 25.5625 46.0312C25.3958 47.0312 25.1562 47.8438 24.8438 48.4688C24.5312 49.0938 24.1458 49.5521 23.6875 49.8438C23.25 50.1354 22.7708 50.2812 22.25 50.2812C21.8542 50.2812 21.4167 50.1458 20.9375 49.875C20.4583 49.6042 20 49.2708 19.5625 48.875C19.1458 48.4792 18.7917 48.0729 18.5 47.6562C18.2292 47.2396 18.0938 46.875 18.0938 46.5625C18.0938 46.3542 18.1146 46.2188 18.1562 46.1562C18.2188 46.1146 18.2917 46.0938 18.375 46.0938C18.4792 46.1146 18.5938 46.1458 18.7188 46.1875C18.8646 46.2292 19.0208 46.25 19.1875 46.25C19.7708 46.25 20.1875 45.8854 20.4375 45.1562C20.7083 44.4062 20.8438 43.2188 20.8438 41.5938V31.5312H17.5312C17.1979 31.5312 16.8854 31.4271 16.5938 31.2188C16.3229 31.0104 16.0833 30.75 15.875 30.4375C15.6667 30.125 15.5 29.7812 15.375 29.4062C15.2708 29.0312 15.2188 28.6771 15.2188 28.3438C15.2188 27.9896 15.2917 27.6875 15.4375 27.4375C15.6042 27.1875 15.8542 27.0625 16.1875 27.0625H20.8438V6.25C18.5938 6.39583 16.5417 6.72917 14.6875 7.25C12.8333 7.77083 11.2396 8.5625 9.90625 9.625C8.57292 10.6875 7.53125 12.0729 6.78125 13.7812C6.05208 15.4688 5.6875 17.5729 5.6875 20.0938C5.6875 21.1979 5.79167 22.1979 6 23.0938C6.22917 23.9688 6.52083 24.7604 6.875 25.4688C7.22917 26.1771 7.61458 26.8021 8.03125 27.3438C8.46875 27.8854 8.89583 28.3646 9.3125 28.7812C9.66667 28.6771 9.91667 28.7188 10.0625 28.9062C10.2083 29.0938 10.2812 29.3542 10.2812 29.6875C10.2812 30.1042 10.1875 30.5417 10 31C9.83333 31.4375 9.60417 31.8438 9.3125 32.2188C9.02083 32.5729 8.6875 32.875 8.3125 33.125C7.95833 33.3542 7.59375 33.4688 7.21875 33.4688C7.05208 33.4688 6.88542 33.4479 6.71875 33.4062C6.57292 33.3646 6.41667 33.2708 6.25 33.125C5.79167 32.7917 5.23958 32.25 4.59375 31.5C3.94792 30.7292 3.33333 29.7812 2.75 28.6562C2.16667 27.5312 1.66667 26.25 1.25 24.8125C0.833333 23.3542 0.625 21.7812 0.625 20.0938C0.625 13.9479 2.58333 9.26042 6.5 6.03125C10.4375 2.80208 16.2396 1.1875 23.9062 1.1875C24.4896 1.1875 25.2188 1.19792 26.0938 1.21875C26.9896 1.21875 27.9375 1.21875 28.9375 1.21875C29.9375 1.21875 30.9479 1.22917 31.9688 1.25C33.0104 1.27083 33.9688 1.28125 34.8438 1.28125C35.7396 1.28125 36.5 1.29167 37.125 1.3125C37.7708 1.3125 38.2083 1.3125 38.4375 1.3125C38.75 1.3125 39.0104 1.29167 39.2188 1.25C39.4271 1.1875 39.5938 1.125 39.7188 1.0625C39.8646 1 39.9688 0.947917 40.0312 0.90625C40.1146 0.84375 40.1875 0.8125 40.25 0.8125C40.3542 0.8125 40.4583 0.885417 40.5625 1.03125C40.6667 1.15625 40.7604 1.32292 40.8438 1.53125C40.9271 1.71875 40.9896 1.9375 41.0312 2.1875C41.0938 2.4375 41.125 2.6875 41.125 2.9375C41.125 3.3125 41.0625 3.70833 40.9375 4.125C40.8333 4.52083 40.6562 4.88542 40.4062 5.21875C40.1562 5.53125 39.8438 5.79167 39.4688 6C39.1146 6.20833 38.6875 6.3125 38.1875 6.3125C38 6.3125 37.6562 6.3125 37.1562 6.3125C36.6562 6.29167 36.0521 6.28125 35.3438 6.28125C34.6562 6.26042 33.8958 6.25 33.0625 6.25C32.2292 6.22917 31.3854 6.21875 30.5312 6.21875C29.6979 6.19792 28.875 6.1875 28.0625 6.1875C27.25 6.16667 26.5104 6.14583 25.8438 6.125V27.0625H33.8438C34.1771 26.8125 34.4271 26.75 34.5938 26.875C34.7604 27 34.8542 27.2292 34.875 27.5625C34.9167 27.8958 34.8958 28.2917 34.8125 28.75C34.75 29.2083 34.6354 29.6458 34.4688 30.0625C34.3229 30.4583 34.1458 30.8021 33.9375 31.0938C33.7292 31.3854 33.5 31.5312 33.25 31.5312H25.8438V42.4062Z" fill="white"/>
<path d="M61.8125 35.4375C61.8542 35.1875 61.9896 34.9792 62.2188 34.8125C62.4688 34.6458 62.75 34.5312 63.0625 34.4688C63.375 34.4062 63.6979 34.4062 64.0312 34.4688C64.3854 34.5312 64.6875 34.6771 64.9375 34.9062C65.2083 35.1146 65.3958 35.4167 65.5 35.8125C65.625 36.1875 65.6146 36.6771 65.4688 37.2812C65.2812 38.1562 64.9688 38.9792 64.5312 39.75C64.1146 40.5 63.5833 41.1667 62.9375 41.75C62.2917 42.3333 61.5312 42.7917 60.6562 43.125C59.7812 43.4583 58.8021 43.625 57.7188 43.625C57.1354 43.625 56.5833 43.5938 56.0625 43.5312C55.5625 43.4688 55.0729 43.3542 54.5938 43.1875C53.8021 44.5625 52.7812 45.6667 51.5312 46.5C50.2812 47.3542 48.7396 47.7812 46.9062 47.7812C45.2812 47.7812 43.8854 47.4583 42.7188 46.8125C41.5521 46.1875 40.5833 45.3333 39.8125 44.25C39.0417 43.1458 38.4688 41.875 38.0938 40.4375C37.7396 39 37.5625 37.4792 37.5625 35.875C37.5625 33.5208 37.8333 31.4167 38.375 29.5625C38.9375 27.6875 39.5833 26.1042 40.3125 24.8125C41.0417 23.5 41.7604 22.5 42.4688 21.8125C43.1979 21.125 43.7396 20.7812 44.0938 20.7812C44.5104 20.7812 44.8854 20.9688 45.2188 21.3438C45.5729 21.6979 45.8229 22.125 45.9688 22.625C46.1354 23.1042 46.1771 23.5938 46.0938 24.0938C46.0312 24.5938 45.7917 24.9792 45.375 25.25C45.125 25.6458 44.8229 26.1042 44.4688 26.625C44.1354 27.1458 43.8125 27.8021 43.5 28.5938C43.2083 29.3646 42.9583 30.3125 42.75 31.4375C42.5417 32.5625 42.4375 33.9167 42.4375 35.5C42.4375 36.8542 42.5521 38.0312 42.7812 39.0312C43.0312 40.0312 43.3646 40.875 43.7812 41.5625C44.2188 42.2292 44.7083 42.7292 45.25 43.0625C45.8125 43.3958 46.4062 43.5625 47.0312 43.5625C47.9479 43.5625 48.6979 43.3438 49.2812 42.9062C49.8854 42.4479 50.3958 41.8542 50.8125 41.125C49.3125 39.8333 48.1667 38.1979 47.375 36.2188C46.6042 34.2188 46.2188 32.0625 46.2188 29.75C46.2188 28.75 46.3229 27.8021 46.5312 26.9062C46.7604 25.9896 47.0833 25.1875 47.5 24.5C47.9375 23.8125 48.4792 23.2708 49.125 22.875C49.7708 22.4583 50.5208 22.25 51.375 22.25C52.125 22.25 52.8333 22.5208 53.5 23.0625C54.1667 23.6042 54.75 24.3542 55.25 25.3125C55.75 26.2708 56.1354 27.4062 56.4062 28.7188C56.6979 30.0312 56.8438 31.4583 56.8438 33C56.8438 34.1875 56.7708 35.3646 56.625 36.5312C56.4792 37.6979 56.25 38.8229 55.9375 39.9062C56.1667 39.9896 56.375 40.0417 56.5625 40.0625C56.7708 40.0625 56.9896 40.0625 57.2188 40.0625C57.9062 40.0625 58.5104 39.9375 59.0312 39.6875C59.5729 39.4375 60.0312 39.1042 60.4062 38.6875C60.7812 38.2708 61.0833 37.7812 61.3125 37.2188C61.5417 36.6562 61.7083 36.0625 61.8125 35.4375ZM49.5938 29.5C49.5938 30.9375 49.8125 32.3021 50.25 33.5938C50.7083 34.8854 51.3021 36.0104 52.0312 36.9688C52.1562 35.9479 52.2188 34.9688 52.2188 34.0312C52.2188 32.9479 52.1979 31.9479 52.1562 31.0312C52.1354 30.0938 52.0625 29.2917 51.9375 28.625C51.8333 27.9583 51.6771 27.4375 51.4688 27.0625C51.2812 26.6667 51.0208 26.4688 50.6875 26.4688C49.9583 26.4688 49.5938 27.4792 49.5938 29.5Z" fill="white"/>
<path d="M85.25 35.4375C85.2917 35.1875 85.4271 34.9792 85.6562 34.8125C85.9062 34.6458 86.1875 34.5312 86.5 34.4688C86.8125 34.4062 87.1354 34.4062 87.4688 34.4688C87.8229 34.5312 88.125 34.6771 88.375 34.9062C88.6458 35.1146 88.8333 35.4167 88.9375 35.8125C89.0625 36.1875 89.0521 36.6771 88.9062 37.2812C88.7188 38.1562 88.4062 38.9792 87.9688 39.75C87.5521 40.5 87.0208 41.1667 86.375 41.75C85.7292 42.3333 84.9688 42.7917 84.0938 43.125C83.2188 43.4583 82.2396 43.625 81.1562 43.625C80.5729 43.625 80.0208 43.5938 79.5 43.5312C79 43.4688 78.5104 43.3542 78.0312 43.1875C77.2396 44.5625 76.2188 45.6667 74.9688 46.5C73.7188 47.3542 72.1771 47.7812 70.3438 47.7812C68.7188 47.7812 67.3229 47.4583 66.1562 46.8125C64.9896 46.1875 64.0208 45.3333 63.25 44.25C62.4792 43.1458 61.9062 41.875 61.5312 40.4375C61.1771 39 61 37.4792 61 35.875C61 33.5208 61.2708 31.4167 61.8125 29.5625C62.375 27.6875 63.0208 26.1042 63.75 24.8125C64.4792 23.5 65.1979 22.5 65.9062 21.8125C66.6354 21.125 67.1771 20.7812 67.5312 20.7812C67.9479 20.7812 68.3229 20.9688 68.6562 21.3438C69.0104 21.6979 69.2604 22.125 69.4062 22.625C69.5729 23.1042 69.6146 23.5938 69.5312 24.0938C69.4688 24.5938 69.2292 24.9792 68.8125 25.25C68.5625 25.6458 68.2604 26.1042 67.9062 26.625C67.5729 27.1458 67.25 27.8021 66.9375 28.5938C66.6458 29.3646 66.3958 30.3125 66.1875 31.4375C65.9792 32.5625 65.875 33.9167 65.875 35.5C65.875 36.8542 65.9896 38.0312 66.2188 39.0312C66.4688 40.0312 66.8021 40.875 67.2188 41.5625C67.6562 42.2292 68.1458 42.7292 68.6875 43.0625C69.25 43.3958 69.8438 43.5625 70.4688 43.5625C71.3854 43.5625 72.1354 43.3438 72.7188 42.9062C73.3229 42.4479 73.8333 41.8542 74.25 41.125C72.75 39.8333 71.6042 38.1979 70.8125 36.2188C70.0417 34.2188 69.6562 32.0625 69.6562 29.75C69.6562 28.75 69.7604 27.8021 69.9688 26.9062C70.1979 25.9896 70.5208 25.1875 70.9375 24.5C71.375 23.8125 71.9167 23.2708 72.5625 22.875C73.2083 22.4583 73.9583 22.25 74.8125 22.25C75.5625 22.25 76.2708 22.5208 76.9375 23.0625C77.6042 23.6042 78.1875 24.3542 78.6875 25.3125C79.1875 26.2708 79.5729 27.4062 79.8438 28.7188C80.1354 30.0312 80.2812 31.4583 80.2812 33C80.2812 34.1875 80.2083 35.3646 80.0625 36.5312C79.9167 37.6979 79.6875 38.8229 79.375 39.9062C79.6042 39.9896 79.8125 40.0417 80 40.0625C80.2083 40.0625 80.4271 40.0625 80.6562 40.0625C81.3438 40.0625 81.9479 39.9375 82.4688 39.6875C83.0104 39.4375 83.4688 39.1042 83.8438 38.6875C84.2188 38.2708 84.5208 37.7812 84.75 37.2188C84.9792 36.6562 85.1458 36.0625 85.25 35.4375ZM73.0312 29.5C73.0312 30.9375 73.25 32.3021 73.6875 33.5938C74.1458 34.8854 74.7396 36.0104 75.4688 36.9688C75.5938 35.9479 75.6562 34.9688 75.6562 34.0312C75.6562 32.9479 75.6354 31.9479 75.5938 31.0312C75.5729 30.0938 75.5 29.2917 75.375 28.625C75.2708 27.9583 75.1146 27.4375 74.9062 27.0625C74.7188 26.6667 74.4583 26.4688 74.125 26.4688C73.3958 26.4688 73.0312 27.4792 73.0312 29.5Z" fill="white"/>
<path d="M92.4375 47.7812C91.1875 47.7812 90.0521 47.5625 89.0312 47.125C88.0104 46.6875 87.1354 46.0417 86.4062 45.1875C85.6979 44.3125 85.1458 43.2396 84.75 41.9688C84.375 40.6771 84.1875 39.1875 84.1875 37.5C84.1875 35.0417 84.5312 32.8542 85.2188 30.9375C85.9062 29 86.8438 27.3438 88.0312 25.9688C89.2188 24.5729 90.5938 23.4688 92.1562 22.6562C93.7188 21.8229 95.375 21.2812 97.125 21.0312V6.5625C97.125 6.10417 97.0833 5.73958 97 5.46875C96.9375 5.19792 96.8646 4.98958 96.7812 4.84375C96.7188 4.67708 96.6458 4.55208 96.5625 4.46875C96.5 4.36458 96.4688 4.26042 96.4688 4.15625C96.4688 4.03125 96.5312 3.92708 96.6562 3.84375C96.7812 3.76042 96.9479 3.6875 97.1562 3.625C97.3646 3.5625 97.5833 3.52083 97.8125 3.5C98.0625 3.45833 98.3021 3.4375 98.5312 3.4375C99.5938 3.4375 100.427 3.71875 101.031 4.28125C101.656 4.82292 101.969 5.47917 101.969 6.25V40.625C101.969 40.9792 102.01 41.3333 102.094 41.6875C102.177 42.0208 102.302 42.3333 102.469 42.625C102.656 42.8958 102.885 43.125 103.156 43.3125C103.448 43.4792 103.781 43.5625 104.156 43.5625C104.802 43.5625 105.354 43.3333 105.812 42.875C106.292 42.4167 106.698 41.8438 107.031 41.1562C107.385 40.4688 107.667 39.7292 107.875 38.9375C108.104 38.125 108.292 37.3646 108.438 36.6562C108.562 35.9896 108.771 35.5104 109.062 35.2188C109.354 34.9062 109.656 34.75 109.969 34.75C110.219 34.75 110.479 34.8333 110.75 35C111.021 35.1458 111.26 35.3438 111.469 35.5938C111.698 35.8438 111.875 36.125 112 36.4375C112.146 36.75 112.219 37.0625 112.219 37.375C112.219 37.4167 112.219 37.4688 112.219 37.5312C112.219 37.5938 112.198 37.6875 112.156 37.8125C111.885 38.875 111.51 39.9896 111.031 41.1562C110.573 42.3229 109.969 43.3958 109.219 44.375C108.49 45.3542 107.615 46.1667 106.594 46.8125C105.573 47.4583 104.375 47.7812 103 47.7812C101.896 47.7812 100.927 47.5521 100.094 47.0938C99.2604 46.6354 98.6042 46.0312 98.125 45.2812C97.4167 46.0104 96.5938 46.6042 95.6562 47.0625C94.7396 47.5417 93.6667 47.7812 92.4375 47.7812ZM93.4062 43.5625C94.2396 43.5625 94.9583 43.3229 95.5625 42.8438C96.1875 42.3646 96.7083 41.7708 97.125 41.0625V25.25C96.0833 25.4375 95.0729 25.7917 94.0938 26.3125C93.1354 26.8125 92.2812 27.5208 91.5312 28.4375C90.8021 29.3542 90.2188 30.5208 89.7812 31.9375C89.3438 33.3333 89.125 35.0312 89.125 37.0312C89.125 38.1979 89.2396 39.1979 89.4688 40.0312C89.7188 40.8438 90.0312 41.5104 90.4062 42.0312C90.8021 42.5521 91.2604 42.9375 91.7812 43.1875C92.3021 43.4375 92.8438 43.5625 93.4062 43.5625Z" fill="white"/>
<path d="M112.094 15.2188C111.573 15.2188 111.073 15.1146 110.594 14.9062C110.135 14.6979 109.729 14.4167 109.375 14.0625C109.042 13.7083 108.771 13.3021 108.562 12.8438C108.354 12.3646 108.25 11.8542 108.25 11.3125C108.25 10.75 108.354 10.2292 108.562 9.75C108.771 9.27083 109.042 8.86458 109.375 8.53125C109.729 8.17708 110.135 7.90625 110.594 7.71875C111.073 7.51042 111.573 7.40625 112.094 7.40625C112.656 7.40625 113.177 7.51042 113.656 7.71875C114.135 7.90625 114.542 8.17708 114.875 8.53125C115.229 8.86458 115.5 9.27083 115.688 9.75C115.896 10.2292 116 10.75 116 11.3125C116 11.8542 115.896 12.3646 115.688 12.8438C115.5 13.3021 115.229 13.7083 114.875 14.0625C114.542 14.4167 114.135 14.6979 113.656 14.9062C113.177 15.1146 112.656 15.2188 112.094 15.2188ZM113.562 40.625C113.562 40.7708 113.573 41.0104 113.594 41.3438C113.615 41.6562 113.677 41.9792 113.781 42.3125C113.885 42.6458 114.052 42.9375 114.281 43.1875C114.51 43.4375 114.833 43.5625 115.25 43.5625C115.875 43.5625 116.417 43.3333 116.875 42.875C117.354 42.4167 117.76 41.8438 118.094 41.1562C118.448 40.4688 118.74 39.7292 118.969 38.9375C119.198 38.125 119.385 37.3646 119.531 36.6562C119.656 36.0104 119.844 35.5417 120.094 35.25C120.365 34.9583 120.646 34.8021 120.938 34.7812C121.25 34.7396 121.552 34.8125 121.844 35C122.156 35.1875 122.427 35.4375 122.656 35.75C122.906 36.0417 123.083 36.375 123.188 36.75C123.312 37.125 123.333 37.4792 123.25 37.8125C122.958 38.875 122.573 39.9896 122.094 41.1562C121.635 42.3229 121.042 43.3958 120.312 44.375C119.583 45.3542 118.708 46.1667 117.688 46.8125C116.667 47.4583 115.469 47.7812 114.094 47.7812C113.24 47.7812 112.479 47.6146 111.812 47.2812C111.146 46.9688 110.583 46.5417 110.125 46C109.667 45.4583 109.312 44.8229 109.062 44.0938C108.833 43.3646 108.719 42.5938 108.719 41.7812V24.6875C108.719 24.0833 108.667 23.6458 108.562 23.375C108.479 23.1042 108.438 22.8542 108.438 22.625C108.438 22.3125 108.604 22.0625 108.938 21.875C109.271 21.6667 109.667 21.5625 110.125 21.5625C111.188 21.5625 112.021 21.8438 112.625 22.4062C113.25 22.9479 113.562 23.6042 113.562 24.375V40.625Z" fill="white"/>
<path d="M134.5 27.375C134.5 28.5625 134.292 29.7812 133.875 31.0312C133.479 32.2812 132.875 33.4688 132.062 34.5938C131.271 35.6979 130.281 36.6979 129.094 37.5938C127.927 38.4688 126.573 39.1354 125.031 39.5938C125.24 40.1354 125.51 40.6562 125.844 41.1562C126.198 41.6354 126.615 42.0521 127.094 42.4062C127.573 42.7604 128.125 43.0417 128.75 43.25C129.396 43.4583 130.135 43.5625 130.969 43.5625C132.219 43.5625 133.292 43.3333 134.188 42.875C135.083 42.3958 135.833 41.7708 136.438 41C137.062 40.2292 137.562 39.3646 137.938 38.4062C138.312 37.4479 138.594 36.4792 138.781 35.5C138.927 34.7917 139.219 34.3229 139.656 34.0938C140.115 33.8438 140.573 33.7812 141.031 33.9062C141.51 34.0312 141.917 34.3021 142.25 34.7188C142.604 35.1146 142.75 35.5938 142.688 36.1562C142.604 36.8021 142.458 37.5417 142.25 38.375C142.062 39.2083 141.771 40.0521 141.375 40.9062C140.979 41.7604 140.469 42.6042 139.844 43.4375C139.24 44.25 138.49 44.9792 137.594 45.625C136.698 46.2708 135.646 46.7917 134.438 47.1875C133.229 47.5833 131.844 47.7812 130.281 47.7812C128.823 47.7812 127.406 47.4896 126.031 46.9062C124.677 46.3438 123.469 45.5312 122.406 44.4688C121.365 43.3854 120.521 42.0625 119.875 40.5C119.25 38.9167 118.938 37.125 118.938 35.125C118.938 33.1042 119.219 31.2292 119.781 29.5C120.344 27.75 121.083 26.2396 122 24.9688C122.917 23.6979 123.958 22.7083 125.125 22C126.292 21.2708 127.49 20.9062 128.719 20.9062C129.615 20.9062 130.417 21.0625 131.125 21.375C131.854 21.6875 132.469 22.1354 132.969 22.7188C133.469 23.2812 133.844 23.9583 134.094 24.75C134.365 25.5417 134.5 26.4167 134.5 27.375ZM124.188 34.9375C124.188 35.125 124.198 35.3125 124.219 35.5C124.24 35.6875 124.25 35.8854 124.25 36.0938C125.042 35.7188 125.76 35.2396 126.406 34.6562C127.052 34.0729 127.604 33.4062 128.062 32.6562C128.521 31.9062 128.875 31.0938 129.125 30.2188C129.375 29.3229 129.5 28.3958 129.5 27.4375C129.5 26.7292 129.375 26.1771 129.125 25.7812C128.896 25.3854 128.573 25.1875 128.156 25.1875C127.635 25.1875 127.167 25.3646 126.75 25.7188C126.354 26.0729 126 26.5417 125.688 27.125C125.396 27.6875 125.146 28.3333 124.938 29.0625C124.75 29.7708 124.594 30.4896 124.469 31.2188C124.344 31.9479 124.26 32.6458 124.219 33.3125C124.177 33.9583 124.167 34.5 124.188 34.9375Z" fill="white"/>
<path d="M25.8438 42.4062C25.8438 43.8229 25.75 45.0312 25.5625 46.0312C25.3958 47.0312 25.1562 47.8438 24.8438 48.4688C24.5312 49.0938 24.1458 49.5521 23.6875 49.8438C23.25 50.1354 22.7708 50.2812 22.25 50.2812C21.8542 50.2812 21.4167 50.1458 20.9375 49.875C20.4583 49.6042 20 49.2708 19.5625 48.875C19.1458 48.4792 18.7917 48.0729 18.5 47.6562C18.2292 47.2396 18.0938 46.875 18.0938 46.5625C18.0938 46.3542 18.1146 46.2188 18.1562 46.1562C18.2188 46.1146 18.2917 46.0938 18.375 46.0938C18.4792 46.1146 18.5938 46.1458 18.7188 46.1875C18.8646 46.2292 19.0208 46.25 19.1875 46.25C19.7708 46.25 20.1875 45.8854 20.4375 45.1562C20.7083 44.4062 20.8438 43.2188 20.8438 41.5938V31.5312H17.5312C17.1979 31.5312 16.8854 31.4271 16.5938 31.2188C16.3229 31.0104 16.0833 30.75 15.875 30.4375C15.6667 30.125 15.5 29.7812 15.375 29.4062C15.2708 29.0312 15.2188 28.6771 15.2188 28.3438C15.2188 27.9896 15.2917 27.6875 15.4375 27.4375C15.6042 27.1875 15.8542 27.0625 16.1875 27.0625H20.8438V6.25C18.5938 6.39583 16.5417 6.72917 14.6875 7.25C12.8333 7.77083 11.2396 8.5625 9.90625 9.625C8.57292 10.6875 7.53125 12.0729 6.78125 13.7812C6.05208 15.4688 5.6875 17.5729 5.6875 20.0938C5.6875 21.1979 5.79167 22.1979 6 23.0938C6.22917 23.9688 6.52083 24.7604 6.875 25.4688C7.22917 26.1771 7.61458 26.8021 8.03125 27.3438C8.46875 27.8854 8.89583 28.3646 9.3125 28.7812C9.66667 28.6771 9.91667 28.7188 10.0625 28.9062C10.2083 29.0938 10.2812 29.3542 10.2812 29.6875C10.2812 30.1042 10.1875 30.5417 10 31C9.83333 31.4375 9.60417 31.8438 9.3125 32.2188C9.02083 32.5729 8.6875 32.875 8.3125 33.125C7.95833 33.3542 7.59375 33.4688 7.21875 33.4688C7.05208 33.4688 6.88542 33.4479 6.71875 33.4062C6.57292 33.3646 6.41667 33.2708 6.25 33.125C5.79167 32.7917 5.23958 32.25 4.59375 31.5C3.94792 30.7292 3.33333 29.7812 2.75 28.6562C2.16667 27.5312 1.66667 26.25 1.25 24.8125C0.833333 23.3542 0.625 21.7812 0.625 20.0938C0.625 13.9479 2.58333 9.26042 6.5 6.03125C10.4375 2.80208 16.2396 1.1875 23.9062 1.1875C24.4896 1.1875 25.2188 1.19792 26.0938 1.21875C26.9896 1.21875 27.9375 1.21875 28.9375 1.21875C29.9375 1.21875 30.9479 1.22917 31.9688 1.25C33.0104 1.27083 33.9688 1.28125 34.8438 1.28125C35.7396 1.28125 36.5 1.29167 37.125 1.3125C37.7708 1.3125 38.2083 1.3125 38.4375 1.3125C38.75 1.3125 39.0104 1.29167 39.2188 1.25C39.4271 1.1875 39.5938 1.125 39.7188 1.0625C39.8646 1 39.9688 0.947917 40.0312 0.90625C40.1146 0.84375 40.1875 0.8125 40.25 0.8125C40.3542 0.8125 40.4583 0.885417 40.5625 1.03125C40.6667 1.15625 40.7604 1.32292 40.8438 1.53125C40.9271 1.71875 40.9896 1.9375 41.0312 2.1875C41.0938 2.4375 41.125 2.6875 41.125 2.9375C41.125 3.3125 41.0625 3.70833 40.9375 4.125C40.8333 4.52083 40.6562 4.88542 40.4062 5.21875C40.1562 5.53125 39.8438 5.79167 39.4688 6C39.1146 6.20833 38.6875 6.3125 38.1875 6.3125C38 6.3125 37.6562 6.3125 37.1562 6.3125C36.6562 6.29167 36.0521 6.28125 35.3438 6.28125C34.6562 6.26042 33.8958 6.25 33.0625 6.25C32.2292 6.22917 31.3854 6.21875 30.5312 6.21875C29.6979 6.19792 28.875 6.1875 28.0625 6.1875C27.25 6.16667 26.5104 6.14583 25.8438 6.125V27.0625H33.8438C34.1771 26.8125 34.4271 26.75 34.5938 26.875C34.7604 27 34.8542 27.2292 34.875 27.5625C34.9167 27.8958 34.8958 28.2917 34.8125 28.75C34.75 29.2083 34.6354 29.6458 34.4688 30.0625C34.3229 30.4583 34.1458 30.8021 33.9375 31.0938C33.7292 31.3854 33.5 31.5312 33.25 31.5312H25.8438V42.4062Z" stroke="white" mask="url(#path-1-outside-1_278_2)"/>
<path d="M61.8125 35.4375C61.8542 35.1875 61.9896 34.9792 62.2188 34.8125C62.4688 34.6458 62.75 34.5312 63.0625 34.4688C63.375 34.4062 63.6979 34.4062 64.0312 34.4688C64.3854 34.5312 64.6875 34.6771 64.9375 34.9062C65.2083 35.1146 65.3958 35.4167 65.5 35.8125C65.625 36.1875 65.6146 36.6771 65.4688 37.2812C65.2812 38.1562 64.9688 38.9792 64.5312 39.75C64.1146 40.5 63.5833 41.1667 62.9375 41.75C62.2917 42.3333 61.5312 42.7917 60.6562 43.125C59.7812 43.4583 58.8021 43.625 57.7188 43.625C57.1354 43.625 56.5833 43.5938 56.0625 43.5312C55.5625 43.4688 55.0729 43.3542 54.5938 43.1875C53.8021 44.5625 52.7812 45.6667 51.5312 46.5C50.2812 47.3542 48.7396 47.7812 46.9062 47.7812C45.2812 47.7812 43.8854 47.4583 42.7188 46.8125C41.5521 46.1875 40.5833 45.3333 39.8125 44.25C39.0417 43.1458 38.4688 41.875 38.0938 40.4375C37.7396 39 37.5625 37.4792 37.5625 35.875C37.5625 33.5208 37.8333 31.4167 38.375 29.5625C38.9375 27.6875 39.5833 26.1042 40.3125 24.8125C41.0417 23.5 41.7604 22.5 42.4688 21.8125C43.1979 21.125 43.7396 20.7812 44.0938 20.7812C44.5104 20.7812 44.8854 20.9688 45.2188 21.3438C45.5729 21.6979 45.8229 22.125 45.9688 22.625C46.1354 23.1042 46.1771 23.5938 46.0938 24.0938C46.0312 24.5938 45.7917 24.9792 45.375 25.25C45.125 25.6458 44.8229 26.1042 44.4688 26.625C44.1354 27.1458 43.8125 27.8021 43.5 28.5938C43.2083 29.3646 42.9583 30.3125 42.75 31.4375C42.5417 32.5625 42.4375 33.9167 42.4375 35.5C42.4375 36.8542 42.5521 38.0312 42.7812 39.0312C43.0312 40.0312 43.3646 40.875 43.7812 41.5625C44.2188 42.2292 44.7083 42.7292 45.25 43.0625C45.8125 43.3958 46.4062 43.5625 47.0312 43.5625C47.9479 43.5625 48.6979 43.3438 49.2812 42.9062C49.8854 42.4479 50.3958 41.8542 50.8125 41.125C49.3125 39.8333 48.1667 38.1979 47.375 36.2188C46.6042 34.2188 46.2188 32.0625 46.2188 29.75C46.2188 28.75 46.3229 27.8021 46.5312 26.9062C46.7604 25.9896 47.0833 25.1875 47.5 24.5C47.9375 23.8125 48.4792 23.2708 49.125 22.875C49.7708 22.4583 50.5208 22.25 51.375 22.25C52.125 22.25 52.8333 22.5208 53.5 23.0625C54.1667 23.6042 54.75 24.3542 55.25 25.3125C55.75 26.2708 56.1354 27.4062 56.4062 28.7188C56.6979 30.0312 56.8438 31.4583 56.8438 33C56.8438 34.1875 56.7708 35.3646 56.625 36.5312C56.4792 37.6979 56.25 38.8229 55.9375 39.9062C56.1667 39.9896 56.375 40.0417 56.5625 40.0625C56.7708 40.0625 56.9896 40.0625 57.2188 40.0625C57.9062 40.0625 58.5104 39.9375 59.0312 39.6875C59.5729 39.4375 60.0312 39.1042 60.4062 38.6875C60.7812 38.2708 61.0833 37.7812 61.3125 37.2188C61.5417 36.6562 61.7083 36.0625 61.8125 35.4375ZM49.5938 29.5C49.5938 30.9375 49.8125 32.3021 50.25 33.5938C50.7083 34.8854 51.3021 36.0104 52.0312 36.9688C52.1562 35.9479 52.2188 34.9688 52.2188 34.0312C52.2188 32.9479 52.1979 31.9479 52.1562 31.0312C52.1354 30.0938 52.0625 29.2917 51.9375 28.625C51.8333 27.9583 51.6771 27.4375 51.4688 27.0625C51.2812 26.6667 51.0208 26.4688 50.6875 26.4688C49.9583 26.4688 49.5938 27.4792 49.5938 29.5Z" stroke="white" mask="url(#path-1-outside-1_278_2)"/>
<path d="M85.25 35.4375C85.2917 35.1875 85.4271 34.9792 85.6562 34.8125C85.9062 34.6458 86.1875 34.5312 86.5 34.4688C86.8125 34.4062 87.1354 34.4062 87.4688 34.4688C87.8229 34.5312 88.125 34.6771 88.375 34.9062C88.6458 35.1146 88.8333 35.4167 88.9375 35.8125C89.0625 36.1875 89.0521 36.6771 88.9062 37.2812C88.7188 38.1562 88.4062 38.9792 87.9688 39.75C87.5521 40.5 87.0208 41.1667 86.375 41.75C85.7292 42.3333 84.9688 42.7917 84.0938 43.125C83.2188 43.4583 82.2396 43.625 81.1562 43.625C80.5729 43.625 80.0208 43.5938 79.5 43.5312C79 43.4688 78.5104 43.3542 78.0312 43.1875C77.2396 44.5625 76.2188 45.6667 74.9688 46.5C73.7188 47.3542 72.1771 47.7812 70.3438 47.7812C68.7188 47.7812 67.3229 47.4583 66.1562 46.8125C64.9896 46.1875 64.0208 45.3333 63.25 44.25C62.4792 43.1458 61.9062 41.875 61.5312 40.4375C61.1771 39 61 37.4792 61 35.875C61 33.5208 61.2708 31.4167 61.8125 29.5625C62.375 27.6875 63.0208 26.1042 63.75 24.8125C64.4792 23.5 65.1979 22.5 65.9062 21.8125C66.6354 21.125 67.1771 20.7812 67.5312 20.7812C67.9479 20.7812 68.3229 20.9688 68.6562 21.3438C69.0104 21.6979 69.2604 22.125 69.4062 22.625C69.5729 23.1042 69.6146 23.5938 69.5312 24.0938C69.4688 24.5938 69.2292 24.9792 68.8125 25.25C68.5625 25.6458 68.2604 26.1042 67.9062 26.625C67.5729 27.1458 67.25 27.8021 66.9375 28.5938C66.6458 29.3646 66.3958 30.3125 66.1875 31.4375C65.9792 32.5625 65.875 33.9167 65.875 35.5C65.875 36.8542 65.9896 38.0312 66.2188 39.0312C66.4688 40.0312 66.8021 40.875 67.2188 41.5625C67.6562 42.2292 68.1458 42.7292 68.6875 43.0625C69.25 43.3958 69.8438 43.5625 70.4688 43.5625C71.3854 43.5625 72.1354 43.3438 72.7188 42.9062C73.3229 42.4479 73.8333 41.8542 74.25 41.125C72.75 39.8333 71.6042 38.1979 70.8125 36.2188C70.0417 34.2188 69.6562 32.0625 69.6562 29.75C69.6562 28.75 69.7604 27.8021 69.9688 26.9062C70.1979 25.9896 70.5208 25.1875 70.9375 24.5C71.375 23.8125 71.9167 23.2708 72.5625 22.875C73.2083 22.4583 73.9583 22.25 74.8125 22.25C75.5625 22.25 76.2708 22.5208 76.9375 23.0625C77.6042 23.6042 78.1875 24.3542 78.6875 25.3125C79.1875 26.2708 79.5729 27.4062 79.8438 28.7188C80.1354 30.0312 80.2812 31.4583 80.2812 33C80.2812 34.1875 80.2083 35.3646 80.0625 36.5312C79.9167 37.6979 79.6875 38.8229 79.375 39.9062C79.6042 39.9896 79.8125 40.0417 80 40.0625C80.2083 40.0625 80.4271 40.0625 80.6562 40.0625C81.3438 40.0625 81.9479 39.9375 82.4688 39.6875C83.0104 39.4375 83.4688 39.1042 83.8438 38.6875C84.2188 38.2708 84.5208 37.7812 84.75 37.2188C84.9792 36.6562 85.1458 36.0625 85.25 35.4375ZM73.0312 29.5C73.0312 30.9375 73.25 32.3021 73.6875 33.5938C74.1458 34.8854 74.7396 36.0104 75.4688 36.9688C75.5938 35.9479 75.6562 34.9688 75.6562 34.0312C75.6562 32.9479 75.6354 31.9479 75.5938 31.0312C75.5729 30.0938 75.5 29.2917 75.375 28.625C75.2708 27.9583 75.1146 27.4375 74.9062 27.0625C74.7188 26.6667 74.4583 26.4688 74.125 26.4688C73.3958 26.4688 73.0312 27.4792 73.0312 29.5Z" stroke="white" mask="url(#path-1-outside-1_278_2)"/>
<path d="M92.4375 47.7812C91.1875 47.7812 90.0521 47.5625 89.0312 47.125C88.0104 46.6875 87.1354 46.0417 86.4062 45.1875C85.6979 44.3125 85.1458 43.2396 84.75 41.9688C84.375 40.6771 84.1875 39.1875 84.1875 37.5C84.1875 35.0417 84.5312 32.8542 85.2188 30.9375C85.9062 29 86.8438 27.3438 88.0312 25.9688C89.2188 24.5729 90.5938 23.4688 92.1562 22.6562C93.7188 21.8229 95.375 21.2812 97.125 21.0312V6.5625C97.125 6.10417 97.0833 5.73958 97 5.46875C96.9375 5.19792 96.8646 4.98958 96.7812 4.84375C96.7188 4.67708 96.6458 4.55208 96.5625 4.46875C96.5 4.36458 96.4688 4.26042 96.4688 4.15625C96.4688 4.03125 96.5312 3.92708 96.6562 3.84375C96.7812 3.76042 96.9479 3.6875 97.1562 3.625C97.3646 3.5625 97.5833 3.52083 97.8125 3.5C98.0625 3.45833 98.3021 3.4375 98.5312 3.4375C99.5938 3.4375 100.427 3.71875 101.031 4.28125C101.656 4.82292 101.969 5.47917 101.969 6.25V40.625C101.969 40.9792 102.01 41.3333 102.094 41.6875C102.177 42.0208 102.302 42.3333 102.469 42.625C102.656 42.8958 102.885 43.125 103.156 43.3125C103.448 43.4792 103.781 43.5625 104.156 43.5625C104.802 43.5625 105.354 43.3333 105.812 42.875C106.292 42.4167 106.698 41.8438 107.031 41.1562C107.385 40.4688 107.667 39.7292 107.875 38.9375C108.104 38.125 108.292 37.3646 108.438 36.6562C108.562 35.9896 108.771 35.5104 109.062 35.2188C109.354 34.9062 109.656 34.75 109.969 34.75C110.219 34.75 110.479 34.8333 110.75 35C111.021 35.1458 111.26 35.3438 111.469 35.5938C111.698 35.8438 111.875 36.125 112 36.4375C112.146 36.75 112.219 37.0625 112.219 37.375C112.219 37.4167 112.219 37.4688 112.219 37.5312C112.219 37.5938 112.198 37.6875 112.156 37.8125C111.885 38.875 111.51 39.9896 111.031 41.1562C110.573 42.3229 109.969 43.3958 109.219 44.375C108.49 45.3542 107.615 46.1667 106.594 46.8125C105.573 47.4583 104.375 47.7812 103 47.7812C101.896 47.7812 100.927 47.5521 100.094 47.0938C99.2604 46.6354 98.6042 46.0312 98.125 45.2812C97.4167 46.0104 96.5938 46.6042 95.6562 47.0625C94.7396 47.5417 93.6667 47.7812 92.4375 47.7812ZM93.4062 43.5625C94.2396 43.5625 94.9583 43.3229 95.5625 42.8438C96.1875 42.3646 96.7083 41.7708 97.125 41.0625V25.25C96.0833 25.4375 95.0729 25.7917 94.0938 26.3125C93.1354 26.8125 92.2812 27.5208 91.5312 28.4375C90.8021 29.3542 90.2188 30.5208 89.7812 31.9375C89.3438 33.3333 89.125 35.0312 89.125 37.0312C89.125 38.1979 89.2396 39.1979 89.4688 40.0312C89.7188 40.8438 90.0312 41.5104 90.4062 42.0312C90.8021 42.5521 91.2604 42.9375 91.7812 43.1875C92.3021 43.4375 92.8438 43.5625 93.4062 43.5625Z" stroke="white" mask="url(#path-1-outside-1_278_2)"/>
<path d="M112.094 15.2188C111.573 15.2188 111.073 15.1146 110.594 14.9062C110.135 14.6979 109.729 14.4167 109.375 14.0625C109.042 13.7083 108.771 13.3021 108.562 12.8438C108.354 12.3646 108.25 11.8542 108.25 11.3125C108.25 10.75 108.354 10.2292 108.562 9.75C108.771 9.27083 109.042 8.86458 109.375 8.53125C109.729 8.17708 110.135 7.90625 110.594 7.71875C111.073 7.51042 111.573 7.40625 112.094 7.40625C112.656 7.40625 113.177 7.51042 113.656 7.71875C114.135 7.90625 114.542 8.17708 114.875 8.53125C115.229 8.86458 115.5 9.27083 115.688 9.75C115.896 10.2292 116 10.75 116 11.3125C116 11.8542 115.896 12.3646 115.688 12.8438C115.5 13.3021 115.229 13.7083 114.875 14.0625C114.542 14.4167 114.135 14.6979 113.656 14.9062C113.177 15.1146 112.656 15.2188 112.094 15.2188ZM113.562 40.625C113.562 40.7708 113.573 41.0104 113.594 41.3438C113.615 41.6562 113.677 41.9792 113.781 42.3125C113.885 42.6458 114.052 42.9375 114.281 43.1875C114.51 43.4375 114.833 43.5625 115.25 43.5625C115.875 43.5625 116.417 43.3333 116.875 42.875C117.354 42.4167 117.76 41.8438 118.094 41.1562C118.448 40.4688 118.74 39.7292 118.969 38.9375C119.198 38.125 119.385 37.3646 119.531 36.6562C119.656 36.0104 119.844 35.5417 120.094 35.25C120.365 34.9583 120.646 34.8021 120.938 34.7812C121.25 34.7396 121.552 34.8125 121.844 35C122.156 35.1875 122.427 35.4375 122.656 35.75C122.906 36.0417 123.083 36.375 123.188 36.75C123.312 37.125 123.333 37.4792 123.25 37.8125C122.958 38.875 122.573 39.9896 122.094 41.1562C121.635 42.3229 121.042 43.3958 120.312 44.375C119.583 45.3542 118.708 46.1667 117.688 46.8125C116.667 47.4583 115.469 47.7812 114.094 47.7812C113.24 47.7812 112.479 47.6146 111.812 47.2812C111.146 46.9688 110.583 46.5417 110.125 46C109.667 45.4583 109.312 44.8229 109.062 44.0938C108.833 43.3646 108.719 42.5938 108.719 41.7812V24.6875C108.719 24.0833 108.667 23.6458 108.562 23.375C108.479 23.1042 108.438 22.8542 108.438 22.625C108.438 22.3125 108.604 22.0625 108.938 21.875C109.271 21.6667 109.667 21.5625 110.125 21.5625C111.188 21.5625 112.021 21.8438 112.625 22.4062C113.25 22.9479 113.562 23.6042 113.562 24.375V40.625Z" stroke="white" mask="url(#path-1-outside-1_278_2)"/>
<path d="M134.5 27.375C134.5 28.5625 134.292 29.7812 133.875 31.0312C133.479 32.2812 132.875 33.4688 132.062 34.5938C131.271 35.6979 130.281 36.6979 129.094 37.5938C127.927 38.4688 126.573 39.1354 125.031 39.5938C125.24 40.1354 125.51 40.6562 125.844 41.1562C126.198 41.6354 126.615 42.0521 127.094 42.4062C127.573 42.7604 128.125 43.0417 128.75 43.25C129.396 43.4583 130.135 43.5625 130.969 43.5625C132.219 43.5625 133.292 43.3333 134.188 42.875C135.083 42.3958 135.833 41.7708 136.438 41C137.062 40.2292 137.562 39.3646 137.938 38.4062C138.312 37.4479 138.594 36.4792 138.781 35.5C138.927 34.7917 139.219 34.3229 139.656 34.0938C140.115 33.8438 140.573 33.7812 141.031 33.9062C141.51 34.0312 141.917 34.3021 142.25 34.7188C142.604 35.1146 142.75 35.5938 142.688 36.1562C142.604 36.8021 142.458 37.5417 142.25 38.375C142.062 39.2083 141.771 40.0521 141.375 40.9062C140.979 41.7604 140.469 42.6042 139.844 43.4375C139.24 44.25 138.49 44.9792 137.594 45.625C136.698 46.2708 135.646 46.7917 134.438 47.1875C133.229 47.5833 131.844 47.7812 130.281 47.7812C128.823 47.7812 127.406 47.4896 126.031 46.9062C124.677 46.3438 123.469 45.5312 122.406 44.4688C121.365 43.3854 120.521 42.0625 119.875 40.5C119.25 38.9167 118.938 37.125 118.938 35.125C118.938 33.1042 119.219 31.2292 119.781 29.5C120.344 27.75 121.083 26.2396 122 24.9688C122.917 23.6979 123.958 22.7083 125.125 22C126.292 21.2708 127.49 20.9062 128.719 20.9062C129.615 20.9062 130.417 21.0625 131.125 21.375C131.854 21.6875 132.469 22.1354 132.969 22.7188C133.469 23.2812 133.844 23.9583 134.094 24.75C134.365 25.5417 134.5 26.4167 134.5 27.375ZM124.188 34.9375C124.188 35.125 124.198 35.3125 124.219 35.5C124.24 35.6875 124.25 35.8854 124.25 36.0938C125.042 35.7188 125.76 35.2396 126.406 34.6562C127.052 34.0729 127.604 33.4062 128.062 32.6562C128.521 31.9062 128.875 31.0938 129.125 30.2188C129.375 29.3229 129.5 28.3958 129.5 27.4375C129.5 26.7292 129.375 26.1771 129.125 25.7812C128.896 25.3854 128.573 25.1875 128.156 25.1875C127.635 25.1875 127.167 25.3646 126.75 25.7188C126.354 26.0729 126 26.5417 125.688 27.125C125.396 27.6875 125.146 28.3333 124.938 29.0625C124.75 29.7708 124.594 30.4896 124.469 31.2188C124.344 31.9479 124.26 32.6458 124.219 33.3125C124.177 33.9583 124.167 34.5 124.188 34.9375Z" stroke="white" mask="url(#path-1-outside-1_278_2)"/>
</svg>
