<svg width="144" height="51" viewBox="0 0 144 51" fill="none" xmlns="http://www.w3.org/2000/svg">
<mask id="path-1-outside-1_280_2" maskUnits="userSpaceOnUse" x="0" y="0" width="144" height="51" fill="black">
<rect fill="white" width="144" height="51"/>
<path d="M26.2188 42.5938C26.2188 44.0104 26.125 45.2188 25.9375 46.2188C25.7708 47.2188 25.5312 48.0312 25.2188 48.6562C24.9062 49.2812 24.5208 49.7396 24.0625 50.0312C23.625 50.3229 23.1458 50.4688 22.625 50.4688C22.2292 50.4688 21.7917 50.3333 21.3125 50.0625C20.8333 49.7917 20.375 49.4583 19.9375 49.0625C19.5208 48.6667 19.1667 48.2604 18.875 47.8438C18.6042 47.4271 18.4688 47.0625 18.4688 46.75C18.4688 46.5417 18.4896 46.4062 18.5312 46.3438C18.5938 46.3021 18.6667 46.2812 18.75 46.2812C18.8542 46.3021 18.9688 46.3333 19.0938 46.375C19.2396 46.4167 19.3958 46.4375 19.5625 46.4375C20.1458 46.4375 20.5625 46.0729 20.8125 45.3438C21.0833 44.5938 21.2188 43.4062 21.2188 41.7812V31.7188H17.9062C17.5729 31.7188 17.2604 31.6146 16.9688 31.4062C16.6979 31.1979 16.4583 30.9375 16.25 30.625C16.0417 30.3125 15.875 29.9688 15.75 29.5938C15.6458 29.2188 15.5938 28.8646 15.5938 28.5312C15.5938 28.1771 15.6667 27.875 15.8125 27.625C15.9792 27.375 16.2292 27.25 16.5625 27.25H21.2188V6.4375C18.9688 6.58333 16.9167 6.91667 15.0625 7.4375C13.2083 7.95833 11.6146 8.75 10.2812 9.8125C8.94792 10.875 7.90625 12.2604 7.15625 13.9688C6.42708 15.6562 6.0625 17.7604 6.0625 20.2812C6.0625 21.3854 6.16667 22.3854 6.375 23.2812C6.60417 24.1562 6.89583 24.9479 7.25 25.6562C7.60417 26.3646 7.98958 26.9896 8.40625 27.5312C8.84375 28.0729 9.27083 28.5521 9.6875 28.9688C10.0417 28.8646 10.2917 28.9062 10.4375 29.0938C10.5833 29.2812 10.6562 29.5417 10.6562 29.875C10.6562 30.2917 10.5625 30.7292 10.375 31.1875C10.2083 31.625 9.97917 32.0312 9.6875 32.4062C9.39583 32.7604 9.0625 33.0625 8.6875 33.3125C8.33333 33.5417 7.96875 33.6562 7.59375 33.6562C7.42708 33.6562 7.26042 33.6354 7.09375 33.5938C6.94792 33.5521 6.79167 33.4583 6.625 33.3125C6.16667 32.9792 5.61458 32.4375 4.96875 31.6875C4.32292 30.9167 3.70833 29.9688 3.125 28.8438C2.54167 27.7188 2.04167 26.4375 1.625 25C1.20833 23.5417 1 21.9688 1 20.2812C1 14.1354 2.95833 9.44792 6.875 6.21875C10.8125 2.98958 16.6146 1.375 24.2812 1.375C24.8646 1.375 25.5938 1.38542 26.4688 1.40625C27.3646 1.40625 28.3125 1.40625 29.3125 1.40625C30.3125 1.40625 31.3229 1.41667 32.3438 1.4375C33.3854 1.45833 34.3438 1.46875 35.2188 1.46875C36.1146 1.46875 36.875 1.47917 37.5 1.5C38.1458 1.5 38.5833 1.5 38.8125 1.5C39.125 1.5 39.3854 1.47917 39.5938 1.4375C39.8021 1.375 39.9688 1.3125 40.0938 1.25C40.2396 1.1875 40.3438 1.13542 40.4062 1.09375C40.4896 1.03125 40.5625 1 40.625 1C40.7292 1 40.8333 1.07292 40.9375 1.21875C41.0417 1.34375 41.1354 1.51042 41.2188 1.71875C41.3021 1.90625 41.3646 2.125 41.4062 2.375C41.4688 2.625 41.5 2.875 41.5 3.125C41.5 3.5 41.4375 3.89583 41.3125 4.3125C41.2083 4.70833 41.0312 5.07292 40.7812 5.40625C40.5312 5.71875 40.2188 5.97917 39.8438 6.1875C39.4896 6.39583 39.0625 6.5 38.5625 6.5C38.375 6.5 38.0312 6.5 37.5312 6.5C37.0312 6.47917 36.4271 6.46875 35.7188 6.46875C35.0312 6.44792 34.2708 6.4375 33.4375 6.4375C32.6042 6.41667 31.7604 6.40625 30.9062 6.40625C30.0729 6.38542 29.25 6.375 28.4375 6.375C27.625 6.35417 26.8854 6.33333 26.2188 6.3125V27.25H34.2188C34.5521 27 34.8021 26.9375 34.9688 27.0625C35.1354 27.1875 35.2292 27.4167 35.25 27.75C35.2917 28.0833 35.2708 28.4792 35.1875 28.9375C35.125 29.3958 35.0104 29.8333 34.8438 30.25C34.6979 30.6458 34.5208 30.9896 34.3125 31.2812C34.1042 31.5729 33.875 31.7188 33.625 31.7188H26.2188V42.5938Z"/>
<path d="M62.1875 35.625C62.2292 35.375 62.3646 35.1667 62.5938 35C62.8438 34.8333 63.125 34.7188 63.4375 34.6562C63.75 34.5938 64.0729 34.5938 64.4062 34.6562C64.7604 34.7188 65.0625 34.8646 65.3125 35.0938C65.5833 35.3021 65.7708 35.6042 65.875 36C66 36.375 65.9896 36.8646 65.8438 37.4688C65.6562 38.3438 65.3438 39.1667 64.9062 39.9375C64.4896 40.6875 63.9583 41.3542 63.3125 41.9375C62.6667 42.5208 61.9062 42.9792 61.0312 43.3125C60.1562 43.6458 59.1771 43.8125 58.0938 43.8125C57.5104 43.8125 56.9583 43.7812 56.4375 43.7188C55.9375 43.6562 55.4479 43.5417 54.9688 43.375C54.1771 44.75 53.1562 45.8542 51.9062 46.6875C50.6562 47.5417 49.1146 47.9688 47.2812 47.9688C45.6562 47.9688 44.2604 47.6458 43.0938 47C41.9271 46.375 40.9583 45.5208 40.1875 44.4375C39.4167 43.3333 38.8438 42.0625 38.4688 40.625C38.1146 39.1875 37.9375 37.6667 37.9375 36.0625C37.9375 33.7083 38.2083 31.6042 38.75 29.75C39.3125 27.875 39.9583 26.2917 40.6875 25C41.4167 23.6875 42.1354 22.6875 42.8438 22C43.5729 21.3125 44.1146 20.9688 44.4688 20.9688C44.8854 20.9688 45.2604 21.1562 45.5938 21.5312C45.9479 21.8854 46.1979 22.3125 46.3438 22.8125C46.5104 23.2917 46.5521 23.7812 46.4688 24.2812C46.4062 24.7812 46.1667 25.1667 45.75 25.4375C45.5 25.8333 45.1979 26.2917 44.8438 26.8125C44.5104 27.3333 44.1875 27.9896 43.875 28.7812C43.5833 29.5521 43.3333 30.5 43.125 31.625C42.9167 32.75 42.8125 34.1042 42.8125 35.6875C42.8125 37.0417 42.9271 38.2188 43.1562 39.2188C43.4062 40.2188 43.7396 41.0625 44.1562 41.75C44.5938 42.4167 45.0833 42.9167 45.625 43.25C46.1875 43.5833 46.7812 43.75 47.4062 43.75C48.3229 43.75 49.0729 43.5312 49.6562 43.0938C50.2604 42.6354 50.7708 42.0417 51.1875 41.3125C49.6875 40.0208 48.5417 38.3854 47.75 36.4062C46.9792 34.4062 46.5938 32.25 46.5938 29.9375C46.5938 28.9375 46.6979 27.9896 46.9062 27.0938C47.1354 26.1771 47.4583 25.375 47.875 24.6875C48.3125 24 48.8542 23.4583 49.5 23.0625C50.1458 22.6458 50.8958 22.4375 51.75 22.4375C52.5 22.4375 53.2083 22.7083 53.875 23.25C54.5417 23.7917 55.125 24.5417 55.625 25.5C56.125 26.4583 56.5104 27.5938 56.7812 28.9062C57.0729 30.2188 57.2188 31.6458 57.2188 33.1875C57.2188 34.375 57.1458 35.5521 57 36.7188C56.8542 37.8854 56.625 39.0104 56.3125 40.0938C56.5417 40.1771 56.75 40.2292 56.9375 40.25C57.1458 40.25 57.3646 40.25 57.5938 40.25C58.2812 40.25 58.8854 40.125 59.4062 39.875C59.9479 39.625 60.4062 39.2917 60.7812 38.875C61.1562 38.4583 61.4583 37.9688 61.6875 37.4062C61.9167 36.8438 62.0833 36.25 62.1875 35.625ZM49.9688 29.6875C49.9688 31.125 50.1875 32.4896 50.625 33.7812C51.0833 35.0729 51.6771 36.1979 52.4062 37.1562C52.5312 36.1354 52.5938 35.1562 52.5938 34.2188C52.5938 33.1354 52.5729 32.1354 52.5312 31.2188C52.5104 30.2812 52.4375 29.4792 52.3125 28.8125C52.2083 28.1458 52.0521 27.625 51.8438 27.25C51.6562 26.8542 51.3958 26.6562 51.0625 26.6562C50.3333 26.6562 49.9688 27.6667 49.9688 29.6875Z"/>
<path d="M85.625 35.625C85.6667 35.375 85.8021 35.1667 86.0312 35C86.2812 34.8333 86.5625 34.7188 86.875 34.6562C87.1875 34.5938 87.5104 34.5938 87.8438 34.6562C88.1979 34.7188 88.5 34.8646 88.75 35.0938C89.0208 35.3021 89.2083 35.6042 89.3125 36C89.4375 36.375 89.4271 36.8646 89.2812 37.4688C89.0938 38.3438 88.7812 39.1667 88.3438 39.9375C87.9271 40.6875 87.3958 41.3542 86.75 41.9375C86.1042 42.5208 85.3438 42.9792 84.4688 43.3125C83.5938 43.6458 82.6146 43.8125 81.5312 43.8125C80.9479 43.8125 80.3958 43.7812 79.875 43.7188C79.375 43.6562 78.8854 43.5417 78.4062 43.375C77.6146 44.75 76.5938 45.8542 75.3438 46.6875C74.0938 47.5417 72.5521 47.9688 70.7188 47.9688C69.0938 47.9688 67.6979 47.6458 66.5312 47C65.3646 46.375 64.3958 45.5208 63.625 44.4375C62.8542 43.3333 62.2812 42.0625 61.9062 40.625C61.5521 39.1875 61.375 37.6667 61.375 36.0625C61.375 33.7083 61.6458 31.6042 62.1875 29.75C62.75 27.875 63.3958 26.2917 64.125 25C64.8542 23.6875 65.5729 22.6875 66.2812 22C67.0104 21.3125 67.5521 20.9688 67.9062 20.9688C68.3229 20.9688 68.6979 21.1562 69.0312 21.5312C69.3854 21.8854 69.6354 22.3125 69.7812 22.8125C69.9479 23.2917 69.9896 23.7812 69.9062 24.2812C69.8438 24.7812 69.6042 25.1667 69.1875 25.4375C68.9375 25.8333 68.6354 26.2917 68.2812 26.8125C67.9479 27.3333 67.625 27.9896 67.3125 28.7812C67.0208 29.5521 66.7708 30.5 66.5625 31.625C66.3542 32.75 66.25 34.1042 66.25 35.6875C66.25 37.0417 66.3646 38.2188 66.5938 39.2188C66.8438 40.2188 67.1771 41.0625 67.5938 41.75C68.0312 42.4167 68.5208 42.9167 69.0625 43.25C69.625 43.5833 70.2188 43.75 70.8438 43.75C71.7604 43.75 72.5104 43.5312 73.0938 43.0938C73.6979 42.6354 74.2083 42.0417 74.625 41.3125C73.125 40.0208 71.9792 38.3854 71.1875 36.4062C70.4167 34.4062 70.0312 32.25 70.0312 29.9375C70.0312 28.9375 70.1354 27.9896 70.3438 27.0938C70.5729 26.1771 70.8958 25.375 71.3125 24.6875C71.75 24 72.2917 23.4583 72.9375 23.0625C73.5833 22.6458 74.3333 22.4375 75.1875 22.4375C75.9375 22.4375 76.6458 22.7083 77.3125 23.25C77.9792 23.7917 78.5625 24.5417 79.0625 25.5C79.5625 26.4583 79.9479 27.5938 80.2188 28.9062C80.5104 30.2188 80.6562 31.6458 80.6562 33.1875C80.6562 34.375 80.5833 35.5521 80.4375 36.7188C80.2917 37.8854 80.0625 39.0104 79.75 40.0938C79.9792 40.1771 80.1875 40.2292 80.375 40.25C80.5833 40.25 80.8021 40.25 81.0312 40.25C81.7188 40.25 82.3229 40.125 82.8438 39.875C83.3854 39.625 83.8438 39.2917 84.2188 38.875C84.5938 38.4583 84.8958 37.9688 85.125 37.4062C85.3542 36.8438 85.5208 36.25 85.625 35.625ZM73.4062 29.6875C73.4062 31.125 73.625 32.4896 74.0625 33.7812C74.5208 35.0729 75.1146 36.1979 75.8438 37.1562C75.9688 36.1354 76.0312 35.1562 76.0312 34.2188C76.0312 33.1354 76.0104 32.1354 75.9688 31.2188C75.9479 30.2812 75.875 29.4792 75.75 28.8125C75.6458 28.1458 75.4896 27.625 75.2812 27.25C75.0938 26.8542 74.8333 26.6562 74.5 26.6562C73.7708 26.6562 73.4062 27.6667 73.4062 29.6875Z"/>
<path d="M92.8125 47.9688C91.5625 47.9688 90.4271 47.75 89.4062 47.3125C88.3854 46.875 87.5104 46.2292 86.7812 45.375C86.0729 44.5 85.5208 43.4271 85.125 42.1562C84.75 40.8646 84.5625 39.375 84.5625 37.6875C84.5625 35.2292 84.9062 33.0417 85.5938 31.125C86.2812 29.1875 87.2188 27.5312 88.4062 26.1562C89.5938 24.7604 90.9688 23.6562 92.5312 22.8438C94.0938 22.0104 95.75 21.4688 97.5 21.2188V6.75C97.5 6.29167 97.4583 5.92708 97.375 5.65625C97.3125 5.38542 97.2396 5.17708 97.1562 5.03125C97.0938 4.86458 97.0208 4.73958 96.9375 4.65625C96.875 4.55208 96.8438 4.44792 96.8438 4.34375C96.8438 4.21875 96.9062 4.11458 97.0312 4.03125C97.1562 3.94792 97.3229 3.875 97.5312 3.8125C97.7396 3.75 97.9583 3.70833 98.1875 3.6875C98.4375 3.64583 98.6771 3.625 98.9062 3.625C99.9688 3.625 100.802 3.90625 101.406 4.46875C102.031 5.01042 102.344 5.66667 102.344 6.4375V40.8125C102.344 41.1667 102.385 41.5208 102.469 41.875C102.552 42.2083 102.677 42.5208 102.844 42.8125C103.031 43.0833 103.26 43.3125 103.531 43.5C103.823 43.6667 104.156 43.75 104.531 43.75C105.177 43.75 105.729 43.5208 106.188 43.0625C106.667 42.6042 107.073 42.0312 107.406 41.3438C107.76 40.6562 108.042 39.9167 108.25 39.125C108.479 38.3125 108.667 37.5521 108.812 36.8438C108.938 36.1771 109.146 35.6979 109.438 35.4062C109.729 35.0938 110.031 34.9375 110.344 34.9375C110.594 34.9375 110.854 35.0208 111.125 35.1875C111.396 35.3333 111.635 35.5312 111.844 35.7812C112.073 36.0312 112.25 36.3125 112.375 36.625C112.521 36.9375 112.594 37.25 112.594 37.5625C112.594 37.6042 112.594 37.6562 112.594 37.7188C112.594 37.7812 112.573 37.875 112.531 38C112.26 39.0625 111.885 40.1771 111.406 41.3438C110.948 42.5104 110.344 43.5833 109.594 44.5625C108.865 45.5417 107.99 46.3542 106.969 47C105.948 47.6458 104.75 47.9688 103.375 47.9688C102.271 47.9688 101.302 47.7396 100.469 47.2812C99.6354 46.8229 98.9792 46.2188 98.5 45.4688C97.7917 46.1979 96.9688 46.7917 96.0312 47.25C95.1146 47.7292 94.0417 47.9688 92.8125 47.9688ZM93.7812 43.75C94.6146 43.75 95.3333 43.5104 95.9375 43.0312C96.5625 42.5521 97.0833 41.9583 97.5 41.25V25.4375C96.4583 25.625 95.4479 25.9792 94.4688 26.5C93.5104 27 92.6562 27.7083 91.9062 28.625C91.1771 29.5417 90.5938 30.7083 90.1562 32.125C89.7188 33.5208 89.5 35.2188 89.5 37.2188C89.5 38.3854 89.6146 39.3854 89.8438 40.2188C90.0938 41.0312 90.4062 41.6979 90.7812 42.2188C91.1771 42.7396 91.6354 43.125 92.1562 43.375C92.6771 43.625 93.2188 43.75 93.7812 43.75Z"/>
<path d="M112.469 15.4062C111.948 15.4062 111.448 15.3021 110.969 15.0938C110.51 14.8854 110.104 14.6042 109.75 14.25C109.417 13.8958 109.146 13.4896 108.938 13.0312C108.729 12.5521 108.625 12.0417 108.625 11.5C108.625 10.9375 108.729 10.4167 108.938 9.9375C109.146 9.45833 109.417 9.05208 109.75 8.71875C110.104 8.36458 110.51 8.09375 110.969 7.90625C111.448 7.69792 111.948 7.59375 112.469 7.59375C113.031 7.59375 113.552 7.69792 114.031 7.90625C114.51 8.09375 114.917 8.36458 115.25 8.71875C115.604 9.05208 115.875 9.45833 116.062 9.9375C116.271 10.4167 116.375 10.9375 116.375 11.5C116.375 12.0417 116.271 12.5521 116.062 13.0312C115.875 13.4896 115.604 13.8958 115.25 14.25C114.917 14.6042 114.51 14.8854 114.031 15.0938C113.552 15.3021 113.031 15.4062 112.469 15.4062ZM113.938 40.8125C113.938 40.9583 113.948 41.1979 113.969 41.5312C113.99 41.8438 114.052 42.1667 114.156 42.5C114.26 42.8333 114.427 43.125 114.656 43.375C114.885 43.625 115.208 43.75 115.625 43.75C116.25 43.75 116.792 43.5208 117.25 43.0625C117.729 42.6042 118.135 42.0312 118.469 41.3438C118.823 40.6562 119.115 39.9167 119.344 39.125C119.573 38.3125 119.76 37.5521 119.906 36.8438C120.031 36.1979 120.219 35.7292 120.469 35.4375C120.74 35.1458 121.021 34.9896 121.312 34.9688C121.625 34.9271 121.927 35 122.219 35.1875C122.531 35.375 122.802 35.625 123.031 35.9375C123.281 36.2292 123.458 36.5625 123.562 36.9375C123.688 37.3125 123.708 37.6667 123.625 38C123.333 39.0625 122.948 40.1771 122.469 41.3438C122.01 42.5104 121.417 43.5833 120.688 44.5625C119.958 45.5417 119.083 46.3542 118.062 47C117.042 47.6458 115.844 47.9688 114.469 47.9688C113.615 47.9688 112.854 47.8021 112.188 47.4688C111.521 47.1562 110.958 46.7292 110.5 46.1875C110.042 45.6458 109.688 45.0104 109.438 44.2812C109.208 43.5521 109.094 42.7812 109.094 41.9688V24.875C109.094 24.2708 109.042 23.8333 108.938 23.5625C108.854 23.2917 108.812 23.0417 108.812 22.8125C108.812 22.5 108.979 22.25 109.312 22.0625C109.646 21.8542 110.042 21.75 110.5 21.75C111.562 21.75 112.396 22.0312 113 22.5938C113.625 23.1354 113.938 23.7917 113.938 24.5625V40.8125Z"/>
<path d="M134.875 27.5625C134.875 28.75 134.667 29.9688 134.25 31.2188C133.854 32.4688 133.25 33.6562 132.438 34.7812C131.646 35.8854 130.656 36.8854 129.469 37.7812C128.302 38.6562 126.948 39.3229 125.406 39.7812C125.615 40.3229 125.885 40.8438 126.219 41.3438C126.573 41.8229 126.99 42.2396 127.469 42.5938C127.948 42.9479 128.5 43.2292 129.125 43.4375C129.771 43.6458 130.51 43.75 131.344 43.75C132.594 43.75 133.667 43.5208 134.562 43.0625C135.458 42.5833 136.208 41.9583 136.812 41.1875C137.438 40.4167 137.938 39.5521 138.312 38.5938C138.688 37.6354 138.969 36.6667 139.156 35.6875C139.302 34.9792 139.594 34.5104 140.031 34.2812C140.49 34.0312 140.948 33.9688 141.406 34.0938C141.885 34.2188 142.292 34.4896 142.625 34.9062C142.979 35.3021 143.125 35.7812 143.062 36.3438C142.979 36.9896 142.833 37.7292 142.625 38.5625C142.438 39.3958 142.146 40.2396 141.75 41.0938C141.354 41.9479 140.844 42.7917 140.219 43.625C139.615 44.4375 138.865 45.1667 137.969 45.8125C137.073 46.4583 136.021 46.9792 134.812 47.375C133.604 47.7708 132.219 47.9688 130.656 47.9688C129.198 47.9688 127.781 47.6771 126.406 47.0938C125.052 46.5312 123.844 45.7188 122.781 44.6562C121.74 43.5729 120.896 42.25 120.25 40.6875C119.625 39.1042 119.312 37.3125 119.312 35.3125C119.312 33.2917 119.594 31.4167 120.156 29.6875C120.719 27.9375 121.458 26.4271 122.375 25.1562C123.292 23.8854 124.333 22.8958 125.5 22.1875C126.667 21.4583 127.865 21.0938 129.094 21.0938C129.99 21.0938 130.792 21.25 131.5 21.5625C132.229 21.875 132.844 22.3229 133.344 22.9062C133.844 23.4688 134.219 24.1458 134.469 24.9375C134.74 25.7292 134.875 26.6042 134.875 27.5625ZM124.562 35.125C124.562 35.3125 124.573 35.5 124.594 35.6875C124.615 35.875 124.625 36.0729 124.625 36.2812C125.417 35.9062 126.135 35.4271 126.781 34.8438C127.427 34.2604 127.979 33.5938 128.438 32.8438C128.896 32.0938 129.25 31.2812 129.5 30.4062C129.75 29.5104 129.875 28.5833 129.875 27.625C129.875 26.9167 129.75 26.3646 129.5 25.9688C129.271 25.5729 128.948 25.375 128.531 25.375C128.01 25.375 127.542 25.5521 127.125 25.9062C126.729 26.2604 126.375 26.7292 126.062 27.3125C125.771 27.875 125.521 28.5208 125.312 29.25C125.125 29.9583 124.969 30.6771 124.844 31.4062C124.719 32.1354 124.635 32.8333 124.594 33.5C124.552 34.1458 124.542 34.6875 124.562 35.125Z"/>
</mask>
<path d="M26.2188 42.5938C26.2188 44.0104 26.125 45.2188 25.9375 46.2188C25.7708 47.2188 25.5312 48.0312 25.2188 48.6562C24.9062 49.2812 24.5208 49.7396 24.0625 50.0312C23.625 50.3229 23.1458 50.4688 22.625 50.4688C22.2292 50.4688 21.7917 50.3333 21.3125 50.0625C20.8333 49.7917 20.375 49.4583 19.9375 49.0625C19.5208 48.6667 19.1667 48.2604 18.875 47.8438C18.6042 47.4271 18.4688 47.0625 18.4688 46.75C18.4688 46.5417 18.4896 46.4062 18.5312 46.3438C18.5938 46.3021 18.6667 46.2812 18.75 46.2812C18.8542 46.3021 18.9688 46.3333 19.0938 46.375C19.2396 46.4167 19.3958 46.4375 19.5625 46.4375C20.1458 46.4375 20.5625 46.0729 20.8125 45.3438C21.0833 44.5938 21.2188 43.4062 21.2188 41.7812V31.7188H17.9062C17.5729 31.7188 17.2604 31.6146 16.9688 31.4062C16.6979 31.1979 16.4583 30.9375 16.25 30.625C16.0417 30.3125 15.875 29.9688 15.75 29.5938C15.6458 29.2188 15.5938 28.8646 15.5938 28.5312C15.5938 28.1771 15.6667 27.875 15.8125 27.625C15.9792 27.375 16.2292 27.25 16.5625 27.25H21.2188V6.4375C18.9688 6.58333 16.9167 6.91667 15.0625 7.4375C13.2083 7.95833 11.6146 8.75 10.2812 9.8125C8.94792 10.875 7.90625 12.2604 7.15625 13.9688C6.42708 15.6562 6.0625 17.7604 6.0625 20.2812C6.0625 21.3854 6.16667 22.3854 6.375 23.2812C6.60417 24.1562 6.89583 24.9479 7.25 25.6562C7.60417 26.3646 7.98958 26.9896 8.40625 27.5312C8.84375 28.0729 9.27083 28.5521 9.6875 28.9688C10.0417 28.8646 10.2917 28.9062 10.4375 29.0938C10.5833 29.2812 10.6562 29.5417 10.6562 29.875C10.6562 30.2917 10.5625 30.7292 10.375 31.1875C10.2083 31.625 9.97917 32.0312 9.6875 32.4062C9.39583 32.7604 9.0625 33.0625 8.6875 33.3125C8.33333 33.5417 7.96875 33.6562 7.59375 33.6562C7.42708 33.6562 7.26042 33.6354 7.09375 33.5938C6.94792 33.5521 6.79167 33.4583 6.625 33.3125C6.16667 32.9792 5.61458 32.4375 4.96875 31.6875C4.32292 30.9167 3.70833 29.9688 3.125 28.8438C2.54167 27.7188 2.04167 26.4375 1.625 25C1.20833 23.5417 1 21.9688 1 20.2812C1 14.1354 2.95833 9.44792 6.875 6.21875C10.8125 2.98958 16.6146 1.375 24.2812 1.375C24.8646 1.375 25.5938 1.38542 26.4688 1.40625C27.3646 1.40625 28.3125 1.40625 29.3125 1.40625C30.3125 1.40625 31.3229 1.41667 32.3438 1.4375C33.3854 1.45833 34.3438 1.46875 35.2188 1.46875C36.1146 1.46875 36.875 1.47917 37.5 1.5C38.1458 1.5 38.5833 1.5 38.8125 1.5C39.125 1.5 39.3854 1.47917 39.5938 1.4375C39.8021 1.375 39.9688 1.3125 40.0938 1.25C40.2396 1.1875 40.3438 1.13542 40.4062 1.09375C40.4896 1.03125 40.5625 1 40.625 1C40.7292 1 40.8333 1.07292 40.9375 1.21875C41.0417 1.34375 41.1354 1.51042 41.2188 1.71875C41.3021 1.90625 41.3646 2.125 41.4062 2.375C41.4688 2.625 41.5 2.875 41.5 3.125C41.5 3.5 41.4375 3.89583 41.3125 4.3125C41.2083 4.70833 41.0312 5.07292 40.7812 5.40625C40.5312 5.71875 40.2188 5.97917 39.8438 6.1875C39.4896 6.39583 39.0625 6.5 38.5625 6.5C38.375 6.5 38.0312 6.5 37.5312 6.5C37.0312 6.47917 36.4271 6.46875 35.7188 6.46875C35.0312 6.44792 34.2708 6.4375 33.4375 6.4375C32.6042 6.41667 31.7604 6.40625 30.9062 6.40625C30.0729 6.38542 29.25 6.375 28.4375 6.375C27.625 6.35417 26.8854 6.33333 26.2188 6.3125V27.25H34.2188C34.5521 27 34.8021 26.9375 34.9688 27.0625C35.1354 27.1875 35.2292 27.4167 35.25 27.75C35.2917 28.0833 35.2708 28.4792 35.1875 28.9375C35.125 29.3958 35.0104 29.8333 34.8438 30.25C34.6979 30.6458 34.5208 30.9896 34.3125 31.2812C34.1042 31.5729 33.875 31.7188 33.625 31.7188H26.2188V42.5938Z" fill="black"/>
<path d="M62.1875 35.625C62.2292 35.375 62.3646 35.1667 62.5938 35C62.8438 34.8333 63.125 34.7188 63.4375 34.6562C63.75 34.5938 64.0729 34.5938 64.4062 34.6562C64.7604 34.7188 65.0625 34.8646 65.3125 35.0938C65.5833 35.3021 65.7708 35.6042 65.875 36C66 36.375 65.9896 36.8646 65.8438 37.4688C65.6562 38.3438 65.3438 39.1667 64.9062 39.9375C64.4896 40.6875 63.9583 41.3542 63.3125 41.9375C62.6667 42.5208 61.9062 42.9792 61.0312 43.3125C60.1562 43.6458 59.1771 43.8125 58.0938 43.8125C57.5104 43.8125 56.9583 43.7812 56.4375 43.7188C55.9375 43.6562 55.4479 43.5417 54.9688 43.375C54.1771 44.75 53.1562 45.8542 51.9062 46.6875C50.6562 47.5417 49.1146 47.9688 47.2812 47.9688C45.6562 47.9688 44.2604 47.6458 43.0938 47C41.9271 46.375 40.9583 45.5208 40.1875 44.4375C39.4167 43.3333 38.8438 42.0625 38.4688 40.625C38.1146 39.1875 37.9375 37.6667 37.9375 36.0625C37.9375 33.7083 38.2083 31.6042 38.75 29.75C39.3125 27.875 39.9583 26.2917 40.6875 25C41.4167 23.6875 42.1354 22.6875 42.8438 22C43.5729 21.3125 44.1146 20.9688 44.4688 20.9688C44.8854 20.9688 45.2604 21.1562 45.5938 21.5312C45.9479 21.8854 46.1979 22.3125 46.3438 22.8125C46.5104 23.2917 46.5521 23.7812 46.4688 24.2812C46.4062 24.7812 46.1667 25.1667 45.75 25.4375C45.5 25.8333 45.1979 26.2917 44.8438 26.8125C44.5104 27.3333 44.1875 27.9896 43.875 28.7812C43.5833 29.5521 43.3333 30.5 43.125 31.625C42.9167 32.75 42.8125 34.1042 42.8125 35.6875C42.8125 37.0417 42.9271 38.2188 43.1562 39.2188C43.4062 40.2188 43.7396 41.0625 44.1562 41.75C44.5938 42.4167 45.0833 42.9167 45.625 43.25C46.1875 43.5833 46.7812 43.75 47.4062 43.75C48.3229 43.75 49.0729 43.5312 49.6562 43.0938C50.2604 42.6354 50.7708 42.0417 51.1875 41.3125C49.6875 40.0208 48.5417 38.3854 47.75 36.4062C46.9792 34.4062 46.5938 32.25 46.5938 29.9375C46.5938 28.9375 46.6979 27.9896 46.9062 27.0938C47.1354 26.1771 47.4583 25.375 47.875 24.6875C48.3125 24 48.8542 23.4583 49.5 23.0625C50.1458 22.6458 50.8958 22.4375 51.75 22.4375C52.5 22.4375 53.2083 22.7083 53.875 23.25C54.5417 23.7917 55.125 24.5417 55.625 25.5C56.125 26.4583 56.5104 27.5938 56.7812 28.9062C57.0729 30.2188 57.2188 31.6458 57.2188 33.1875C57.2188 34.375 57.1458 35.5521 57 36.7188C56.8542 37.8854 56.625 39.0104 56.3125 40.0938C56.5417 40.1771 56.75 40.2292 56.9375 40.25C57.1458 40.25 57.3646 40.25 57.5938 40.25C58.2812 40.25 58.8854 40.125 59.4062 39.875C59.9479 39.625 60.4062 39.2917 60.7812 38.875C61.1562 38.4583 61.4583 37.9688 61.6875 37.4062C61.9167 36.8438 62.0833 36.25 62.1875 35.625ZM49.9688 29.6875C49.9688 31.125 50.1875 32.4896 50.625 33.7812C51.0833 35.0729 51.6771 36.1979 52.4062 37.1562C52.5312 36.1354 52.5938 35.1562 52.5938 34.2188C52.5938 33.1354 52.5729 32.1354 52.5312 31.2188C52.5104 30.2812 52.4375 29.4792 52.3125 28.8125C52.2083 28.1458 52.0521 27.625 51.8438 27.25C51.6562 26.8542 51.3958 26.6562 51.0625 26.6562C50.3333 26.6562 49.9688 27.6667 49.9688 29.6875Z" fill="black"/>
<path d="M85.625 35.625C85.6667 35.375 85.8021 35.1667 86.0312 35C86.2812 34.8333 86.5625 34.7188 86.875 34.6562C87.1875 34.5938 87.5104 34.5938 87.8438 34.6562C88.1979 34.7188 88.5 34.8646 88.75 35.0938C89.0208 35.3021 89.2083 35.6042 89.3125 36C89.4375 36.375 89.4271 36.8646 89.2812 37.4688C89.0938 38.3438 88.7812 39.1667 88.3438 39.9375C87.9271 40.6875 87.3958 41.3542 86.75 41.9375C86.1042 42.5208 85.3438 42.9792 84.4688 43.3125C83.5938 43.6458 82.6146 43.8125 81.5312 43.8125C80.9479 43.8125 80.3958 43.7812 79.875 43.7188C79.375 43.6562 78.8854 43.5417 78.4062 43.375C77.6146 44.75 76.5938 45.8542 75.3438 46.6875C74.0938 47.5417 72.5521 47.9688 70.7188 47.9688C69.0938 47.9688 67.6979 47.6458 66.5312 47C65.3646 46.375 64.3958 45.5208 63.625 44.4375C62.8542 43.3333 62.2812 42.0625 61.9062 40.625C61.5521 39.1875 61.375 37.6667 61.375 36.0625C61.375 33.7083 61.6458 31.6042 62.1875 29.75C62.75 27.875 63.3958 26.2917 64.125 25C64.8542 23.6875 65.5729 22.6875 66.2812 22C67.0104 21.3125 67.5521 20.9688 67.9062 20.9688C68.3229 20.9688 68.6979 21.1562 69.0312 21.5312C69.3854 21.8854 69.6354 22.3125 69.7812 22.8125C69.9479 23.2917 69.9896 23.7812 69.9062 24.2812C69.8438 24.7812 69.6042 25.1667 69.1875 25.4375C68.9375 25.8333 68.6354 26.2917 68.2812 26.8125C67.9479 27.3333 67.625 27.9896 67.3125 28.7812C67.0208 29.5521 66.7708 30.5 66.5625 31.625C66.3542 32.75 66.25 34.1042 66.25 35.6875C66.25 37.0417 66.3646 38.2188 66.5938 39.2188C66.8438 40.2188 67.1771 41.0625 67.5938 41.75C68.0312 42.4167 68.5208 42.9167 69.0625 43.25C69.625 43.5833 70.2188 43.75 70.8438 43.75C71.7604 43.75 72.5104 43.5312 73.0938 43.0938C73.6979 42.6354 74.2083 42.0417 74.625 41.3125C73.125 40.0208 71.9792 38.3854 71.1875 36.4062C70.4167 34.4062 70.0312 32.25 70.0312 29.9375C70.0312 28.9375 70.1354 27.9896 70.3438 27.0938C70.5729 26.1771 70.8958 25.375 71.3125 24.6875C71.75 24 72.2917 23.4583 72.9375 23.0625C73.5833 22.6458 74.3333 22.4375 75.1875 22.4375C75.9375 22.4375 76.6458 22.7083 77.3125 23.25C77.9792 23.7917 78.5625 24.5417 79.0625 25.5C79.5625 26.4583 79.9479 27.5938 80.2188 28.9062C80.5104 30.2188 80.6562 31.6458 80.6562 33.1875C80.6562 34.375 80.5833 35.5521 80.4375 36.7188C80.2917 37.8854 80.0625 39.0104 79.75 40.0938C79.9792 40.1771 80.1875 40.2292 80.375 40.25C80.5833 40.25 80.8021 40.25 81.0312 40.25C81.7188 40.25 82.3229 40.125 82.8438 39.875C83.3854 39.625 83.8438 39.2917 84.2188 38.875C84.5938 38.4583 84.8958 37.9688 85.125 37.4062C85.3542 36.8438 85.5208 36.25 85.625 35.625ZM73.4062 29.6875C73.4062 31.125 73.625 32.4896 74.0625 33.7812C74.5208 35.0729 75.1146 36.1979 75.8438 37.1562C75.9688 36.1354 76.0312 35.1562 76.0312 34.2188C76.0312 33.1354 76.0104 32.1354 75.9688 31.2188C75.9479 30.2812 75.875 29.4792 75.75 28.8125C75.6458 28.1458 75.4896 27.625 75.2812 27.25C75.0938 26.8542 74.8333 26.6562 74.5 26.6562C73.7708 26.6562 73.4062 27.6667 73.4062 29.6875Z" fill="black"/>
<path d="M92.8125 47.9688C91.5625 47.9688 90.4271 47.75 89.4062 47.3125C88.3854 46.875 87.5104 46.2292 86.7812 45.375C86.0729 44.5 85.5208 43.4271 85.125 42.1562C84.75 40.8646 84.5625 39.375 84.5625 37.6875C84.5625 35.2292 84.9062 33.0417 85.5938 31.125C86.2812 29.1875 87.2188 27.5312 88.4062 26.1562C89.5938 24.7604 90.9688 23.6562 92.5312 22.8438C94.0938 22.0104 95.75 21.4688 97.5 21.2188V6.75C97.5 6.29167 97.4583 5.92708 97.375 5.65625C97.3125 5.38542 97.2396 5.17708 97.1562 5.03125C97.0938 4.86458 97.0208 4.73958 96.9375 4.65625C96.875 4.55208 96.8438 4.44792 96.8438 4.34375C96.8438 4.21875 96.9062 4.11458 97.0312 4.03125C97.1562 3.94792 97.3229 3.875 97.5312 3.8125C97.7396 3.75 97.9583 3.70833 98.1875 3.6875C98.4375 3.64583 98.6771 3.625 98.9062 3.625C99.9688 3.625 100.802 3.90625 101.406 4.46875C102.031 5.01042 102.344 5.66667 102.344 6.4375V40.8125C102.344 41.1667 102.385 41.5208 102.469 41.875C102.552 42.2083 102.677 42.5208 102.844 42.8125C103.031 43.0833 103.26 43.3125 103.531 43.5C103.823 43.6667 104.156 43.75 104.531 43.75C105.177 43.75 105.729 43.5208 106.188 43.0625C106.667 42.6042 107.073 42.0312 107.406 41.3438C107.76 40.6562 108.042 39.9167 108.25 39.125C108.479 38.3125 108.667 37.5521 108.812 36.8438C108.938 36.1771 109.146 35.6979 109.438 35.4062C109.729 35.0938 110.031 34.9375 110.344 34.9375C110.594 34.9375 110.854 35.0208 111.125 35.1875C111.396 35.3333 111.635 35.5312 111.844 35.7812C112.073 36.0312 112.25 36.3125 112.375 36.625C112.521 36.9375 112.594 37.25 112.594 37.5625C112.594 37.6042 112.594 37.6562 112.594 37.7188C112.594 37.7812 112.573 37.875 112.531 38C112.26 39.0625 111.885 40.1771 111.406 41.3438C110.948 42.5104 110.344 43.5833 109.594 44.5625C108.865 45.5417 107.99 46.3542 106.969 47C105.948 47.6458 104.75 47.9688 103.375 47.9688C102.271 47.9688 101.302 47.7396 100.469 47.2812C99.6354 46.8229 98.9792 46.2188 98.5 45.4688C97.7917 46.1979 96.9688 46.7917 96.0312 47.25C95.1146 47.7292 94.0417 47.9688 92.8125 47.9688ZM93.7812 43.75C94.6146 43.75 95.3333 43.5104 95.9375 43.0312C96.5625 42.5521 97.0833 41.9583 97.5 41.25V25.4375C96.4583 25.625 95.4479 25.9792 94.4688 26.5C93.5104 27 92.6562 27.7083 91.9062 28.625C91.1771 29.5417 90.5938 30.7083 90.1562 32.125C89.7188 33.5208 89.5 35.2188 89.5 37.2188C89.5 38.3854 89.6146 39.3854 89.8438 40.2188C90.0938 41.0312 90.4062 41.6979 90.7812 42.2188C91.1771 42.7396 91.6354 43.125 92.1562 43.375C92.6771 43.625 93.2188 43.75 93.7812 43.75Z" fill="black"/>
<path d="M112.469 15.4062C111.948 15.4062 111.448 15.3021 110.969 15.0938C110.51 14.8854 110.104 14.6042 109.75 14.25C109.417 13.8958 109.146 13.4896 108.938 13.0312C108.729 12.5521 108.625 12.0417 108.625 11.5C108.625 10.9375 108.729 10.4167 108.938 9.9375C109.146 9.45833 109.417 9.05208 109.75 8.71875C110.104 8.36458 110.51 8.09375 110.969 7.90625C111.448 7.69792 111.948 7.59375 112.469 7.59375C113.031 7.59375 113.552 7.69792 114.031 7.90625C114.51 8.09375 114.917 8.36458 115.25 8.71875C115.604 9.05208 115.875 9.45833 116.062 9.9375C116.271 10.4167 116.375 10.9375 116.375 11.5C116.375 12.0417 116.271 12.5521 116.062 13.0312C115.875 13.4896 115.604 13.8958 115.25 14.25C114.917 14.6042 114.51 14.8854 114.031 15.0938C113.552 15.3021 113.031 15.4062 112.469 15.4062ZM113.938 40.8125C113.938 40.9583 113.948 41.1979 113.969 41.5312C113.99 41.8438 114.052 42.1667 114.156 42.5C114.26 42.8333 114.427 43.125 114.656 43.375C114.885 43.625 115.208 43.75 115.625 43.75C116.25 43.75 116.792 43.5208 117.25 43.0625C117.729 42.6042 118.135 42.0312 118.469 41.3438C118.823 40.6562 119.115 39.9167 119.344 39.125C119.573 38.3125 119.76 37.5521 119.906 36.8438C120.031 36.1979 120.219 35.7292 120.469 35.4375C120.74 35.1458 121.021 34.9896 121.312 34.9688C121.625 34.9271 121.927 35 122.219 35.1875C122.531 35.375 122.802 35.625 123.031 35.9375C123.281 36.2292 123.458 36.5625 123.562 36.9375C123.688 37.3125 123.708 37.6667 123.625 38C123.333 39.0625 122.948 40.1771 122.469 41.3438C122.01 42.5104 121.417 43.5833 120.688 44.5625C119.958 45.5417 119.083 46.3542 118.062 47C117.042 47.6458 115.844 47.9688 114.469 47.9688C113.615 47.9688 112.854 47.8021 112.188 47.4688C111.521 47.1562 110.958 46.7292 110.5 46.1875C110.042 45.6458 109.688 45.0104 109.438 44.2812C109.208 43.5521 109.094 42.7812 109.094 41.9688V24.875C109.094 24.2708 109.042 23.8333 108.938 23.5625C108.854 23.2917 108.812 23.0417 108.812 22.8125C108.812 22.5 108.979 22.25 109.312 22.0625C109.646 21.8542 110.042 21.75 110.5 21.75C111.562 21.75 112.396 22.0312 113 22.5938C113.625 23.1354 113.938 23.7917 113.938 24.5625V40.8125Z" fill="black"/>
<path d="M134.875 27.5625C134.875 28.75 134.667 29.9688 134.25 31.2188C133.854 32.4688 133.25 33.6562 132.438 34.7812C131.646 35.8854 130.656 36.8854 129.469 37.7812C128.302 38.6562 126.948 39.3229 125.406 39.7812C125.615 40.3229 125.885 40.8438 126.219 41.3438C126.573 41.8229 126.99 42.2396 127.469 42.5938C127.948 42.9479 128.5 43.2292 129.125 43.4375C129.771 43.6458 130.51 43.75 131.344 43.75C132.594 43.75 133.667 43.5208 134.562 43.0625C135.458 42.5833 136.208 41.9583 136.812 41.1875C137.438 40.4167 137.938 39.5521 138.312 38.5938C138.688 37.6354 138.969 36.6667 139.156 35.6875C139.302 34.9792 139.594 34.5104 140.031 34.2812C140.49 34.0312 140.948 33.9688 141.406 34.0938C141.885 34.2188 142.292 34.4896 142.625 34.9062C142.979 35.3021 143.125 35.7812 143.062 36.3438C142.979 36.9896 142.833 37.7292 142.625 38.5625C142.438 39.3958 142.146 40.2396 141.75 41.0938C141.354 41.9479 140.844 42.7917 140.219 43.625C139.615 44.4375 138.865 45.1667 137.969 45.8125C137.073 46.4583 136.021 46.9792 134.812 47.375C133.604 47.7708 132.219 47.9688 130.656 47.9688C129.198 47.9688 127.781 47.6771 126.406 47.0938C125.052 46.5312 123.844 45.7188 122.781 44.6562C121.74 43.5729 120.896 42.25 120.25 40.6875C119.625 39.1042 119.312 37.3125 119.312 35.3125C119.312 33.2917 119.594 31.4167 120.156 29.6875C120.719 27.9375 121.458 26.4271 122.375 25.1562C123.292 23.8854 124.333 22.8958 125.5 22.1875C126.667 21.4583 127.865 21.0938 129.094 21.0938C129.99 21.0938 130.792 21.25 131.5 21.5625C132.229 21.875 132.844 22.3229 133.344 22.9062C133.844 23.4688 134.219 24.1458 134.469 24.9375C134.74 25.7292 134.875 26.6042 134.875 27.5625ZM124.562 35.125C124.562 35.3125 124.573 35.5 124.594 35.6875C124.615 35.875 124.625 36.0729 124.625 36.2812C125.417 35.9062 126.135 35.4271 126.781 34.8438C127.427 34.2604 127.979 33.5938 128.438 32.8438C128.896 32.0938 129.25 31.2812 129.5 30.4062C129.75 29.5104 129.875 28.5833 129.875 27.625C129.875 26.9167 129.75 26.3646 129.5 25.9688C129.271 25.5729 128.948 25.375 128.531 25.375C128.01 25.375 127.542 25.5521 127.125 25.9062C126.729 26.2604 126.375 26.7292 126.062 27.3125C125.771 27.875 125.521 28.5208 125.312 29.25C125.125 29.9583 124.969 30.6771 124.844 31.4062C124.719 32.1354 124.635 32.8333 124.594 33.5C124.552 34.1458 124.542 34.6875 124.562 35.125Z" fill="black"/>
<path d="M26.2188 42.5938C26.2188 44.0104 26.125 45.2188 25.9375 46.2188C25.7708 47.2188 25.5312 48.0312 25.2188 48.6562C24.9062 49.2812 24.5208 49.7396 24.0625 50.0312C23.625 50.3229 23.1458 50.4688 22.625 50.4688C22.2292 50.4688 21.7917 50.3333 21.3125 50.0625C20.8333 49.7917 20.375 49.4583 19.9375 49.0625C19.5208 48.6667 19.1667 48.2604 18.875 47.8438C18.6042 47.4271 18.4688 47.0625 18.4688 46.75C18.4688 46.5417 18.4896 46.4062 18.5312 46.3438C18.5938 46.3021 18.6667 46.2812 18.75 46.2812C18.8542 46.3021 18.9688 46.3333 19.0938 46.375C19.2396 46.4167 19.3958 46.4375 19.5625 46.4375C20.1458 46.4375 20.5625 46.0729 20.8125 45.3438C21.0833 44.5938 21.2188 43.4062 21.2188 41.7812V31.7188H17.9062C17.5729 31.7188 17.2604 31.6146 16.9688 31.4062C16.6979 31.1979 16.4583 30.9375 16.25 30.625C16.0417 30.3125 15.875 29.9688 15.75 29.5938C15.6458 29.2188 15.5938 28.8646 15.5938 28.5312C15.5938 28.1771 15.6667 27.875 15.8125 27.625C15.9792 27.375 16.2292 27.25 16.5625 27.25H21.2188V6.4375C18.9688 6.58333 16.9167 6.91667 15.0625 7.4375C13.2083 7.95833 11.6146 8.75 10.2812 9.8125C8.94792 10.875 7.90625 12.2604 7.15625 13.9688C6.42708 15.6562 6.0625 17.7604 6.0625 20.2812C6.0625 21.3854 6.16667 22.3854 6.375 23.2812C6.60417 24.1562 6.89583 24.9479 7.25 25.6562C7.60417 26.3646 7.98958 26.9896 8.40625 27.5312C8.84375 28.0729 9.27083 28.5521 9.6875 28.9688C10.0417 28.8646 10.2917 28.9062 10.4375 29.0938C10.5833 29.2812 10.6562 29.5417 10.6562 29.875C10.6562 30.2917 10.5625 30.7292 10.375 31.1875C10.2083 31.625 9.97917 32.0312 9.6875 32.4062C9.39583 32.7604 9.0625 33.0625 8.6875 33.3125C8.33333 33.5417 7.96875 33.6562 7.59375 33.6562C7.42708 33.6562 7.26042 33.6354 7.09375 33.5938C6.94792 33.5521 6.79167 33.4583 6.625 33.3125C6.16667 32.9792 5.61458 32.4375 4.96875 31.6875C4.32292 30.9167 3.70833 29.9688 3.125 28.8438C2.54167 27.7188 2.04167 26.4375 1.625 25C1.20833 23.5417 1 21.9688 1 20.2812C1 14.1354 2.95833 9.44792 6.875 6.21875C10.8125 2.98958 16.6146 1.375 24.2812 1.375C24.8646 1.375 25.5938 1.38542 26.4688 1.40625C27.3646 1.40625 28.3125 1.40625 29.3125 1.40625C30.3125 1.40625 31.3229 1.41667 32.3438 1.4375C33.3854 1.45833 34.3438 1.46875 35.2188 1.46875C36.1146 1.46875 36.875 1.47917 37.5 1.5C38.1458 1.5 38.5833 1.5 38.8125 1.5C39.125 1.5 39.3854 1.47917 39.5938 1.4375C39.8021 1.375 39.9688 1.3125 40.0938 1.25C40.2396 1.1875 40.3438 1.13542 40.4062 1.09375C40.4896 1.03125 40.5625 1 40.625 1C40.7292 1 40.8333 1.07292 40.9375 1.21875C41.0417 1.34375 41.1354 1.51042 41.2188 1.71875C41.3021 1.90625 41.3646 2.125 41.4062 2.375C41.4688 2.625 41.5 2.875 41.5 3.125C41.5 3.5 41.4375 3.89583 41.3125 4.3125C41.2083 4.70833 41.0312 5.07292 40.7812 5.40625C40.5312 5.71875 40.2188 5.97917 39.8438 6.1875C39.4896 6.39583 39.0625 6.5 38.5625 6.5C38.375 6.5 38.0312 6.5 37.5312 6.5C37.0312 6.47917 36.4271 6.46875 35.7188 6.46875C35.0312 6.44792 34.2708 6.4375 33.4375 6.4375C32.6042 6.41667 31.7604 6.40625 30.9062 6.40625C30.0729 6.38542 29.25 6.375 28.4375 6.375C27.625 6.35417 26.8854 6.33333 26.2188 6.3125V27.25H34.2188C34.5521 27 34.8021 26.9375 34.9688 27.0625C35.1354 27.1875 35.2292 27.4167 35.25 27.75C35.2917 28.0833 35.2708 28.4792 35.1875 28.9375C35.125 29.3958 35.0104 29.8333 34.8438 30.25C34.6979 30.6458 34.5208 30.9896 34.3125 31.2812C34.1042 31.5729 33.875 31.7188 33.625 31.7188H26.2188V42.5938Z" stroke="black" mask="url(#path-1-outside-1_280_2)"/>
<path d="M62.1875 35.625C62.2292 35.375 62.3646 35.1667 62.5938 35C62.8438 34.8333 63.125 34.7188 63.4375 34.6562C63.75 34.5938 64.0729 34.5938 64.4062 34.6562C64.7604 34.7188 65.0625 34.8646 65.3125 35.0938C65.5833 35.3021 65.7708 35.6042 65.875 36C66 36.375 65.9896 36.8646 65.8438 37.4688C65.6562 38.3438 65.3438 39.1667 64.9062 39.9375C64.4896 40.6875 63.9583 41.3542 63.3125 41.9375C62.6667 42.5208 61.9062 42.9792 61.0312 43.3125C60.1562 43.6458 59.1771 43.8125 58.0938 43.8125C57.5104 43.8125 56.9583 43.7812 56.4375 43.7188C55.9375 43.6562 55.4479 43.5417 54.9688 43.375C54.1771 44.75 53.1562 45.8542 51.9062 46.6875C50.6562 47.5417 49.1146 47.9688 47.2812 47.9688C45.6562 47.9688 44.2604 47.6458 43.0938 47C41.9271 46.375 40.9583 45.5208 40.1875 44.4375C39.4167 43.3333 38.8438 42.0625 38.4688 40.625C38.1146 39.1875 37.9375 37.6667 37.9375 36.0625C37.9375 33.7083 38.2083 31.6042 38.75 29.75C39.3125 27.875 39.9583 26.2917 40.6875 25C41.4167 23.6875 42.1354 22.6875 42.8438 22C43.5729 21.3125 44.1146 20.9688 44.4688 20.9688C44.8854 20.9688 45.2604 21.1562 45.5938 21.5312C45.9479 21.8854 46.1979 22.3125 46.3438 22.8125C46.5104 23.2917 46.5521 23.7812 46.4688 24.2812C46.4062 24.7812 46.1667 25.1667 45.75 25.4375C45.5 25.8333 45.1979 26.2917 44.8438 26.8125C44.5104 27.3333 44.1875 27.9896 43.875 28.7812C43.5833 29.5521 43.3333 30.5 43.125 31.625C42.9167 32.75 42.8125 34.1042 42.8125 35.6875C42.8125 37.0417 42.9271 38.2188 43.1562 39.2188C43.4062 40.2188 43.7396 41.0625 44.1562 41.75C44.5938 42.4167 45.0833 42.9167 45.625 43.25C46.1875 43.5833 46.7812 43.75 47.4062 43.75C48.3229 43.75 49.0729 43.5312 49.6562 43.0938C50.2604 42.6354 50.7708 42.0417 51.1875 41.3125C49.6875 40.0208 48.5417 38.3854 47.75 36.4062C46.9792 34.4062 46.5938 32.25 46.5938 29.9375C46.5938 28.9375 46.6979 27.9896 46.9062 27.0938C47.1354 26.1771 47.4583 25.375 47.875 24.6875C48.3125 24 48.8542 23.4583 49.5 23.0625C50.1458 22.6458 50.8958 22.4375 51.75 22.4375C52.5 22.4375 53.2083 22.7083 53.875 23.25C54.5417 23.7917 55.125 24.5417 55.625 25.5C56.125 26.4583 56.5104 27.5938 56.7812 28.9062C57.0729 30.2188 57.2188 31.6458 57.2188 33.1875C57.2188 34.375 57.1458 35.5521 57 36.7188C56.8542 37.8854 56.625 39.0104 56.3125 40.0938C56.5417 40.1771 56.75 40.2292 56.9375 40.25C57.1458 40.25 57.3646 40.25 57.5938 40.25C58.2812 40.25 58.8854 40.125 59.4062 39.875C59.9479 39.625 60.4062 39.2917 60.7812 38.875C61.1562 38.4583 61.4583 37.9688 61.6875 37.4062C61.9167 36.8438 62.0833 36.25 62.1875 35.625ZM49.9688 29.6875C49.9688 31.125 50.1875 32.4896 50.625 33.7812C51.0833 35.0729 51.6771 36.1979 52.4062 37.1562C52.5312 36.1354 52.5938 35.1562 52.5938 34.2188C52.5938 33.1354 52.5729 32.1354 52.5312 31.2188C52.5104 30.2812 52.4375 29.4792 52.3125 28.8125C52.2083 28.1458 52.0521 27.625 51.8438 27.25C51.6562 26.8542 51.3958 26.6562 51.0625 26.6562C50.3333 26.6562 49.9688 27.6667 49.9688 29.6875Z" stroke="black" mask="url(#path-1-outside-1_280_2)"/>
<path d="M85.625 35.625C85.6667 35.375 85.8021 35.1667 86.0312 35C86.2812 34.8333 86.5625 34.7188 86.875 34.6562C87.1875 34.5938 87.5104 34.5938 87.8438 34.6562C88.1979 34.7188 88.5 34.8646 88.75 35.0938C89.0208 35.3021 89.2083 35.6042 89.3125 36C89.4375 36.375 89.4271 36.8646 89.2812 37.4688C89.0938 38.3438 88.7812 39.1667 88.3438 39.9375C87.9271 40.6875 87.3958 41.3542 86.75 41.9375C86.1042 42.5208 85.3438 42.9792 84.4688 43.3125C83.5938 43.6458 82.6146 43.8125 81.5312 43.8125C80.9479 43.8125 80.3958 43.7812 79.875 43.7188C79.375 43.6562 78.8854 43.5417 78.4062 43.375C77.6146 44.75 76.5938 45.8542 75.3438 46.6875C74.0938 47.5417 72.5521 47.9688 70.7188 47.9688C69.0938 47.9688 67.6979 47.6458 66.5312 47C65.3646 46.375 64.3958 45.5208 63.625 44.4375C62.8542 43.3333 62.2812 42.0625 61.9062 40.625C61.5521 39.1875 61.375 37.6667 61.375 36.0625C61.375 33.7083 61.6458 31.6042 62.1875 29.75C62.75 27.875 63.3958 26.2917 64.125 25C64.8542 23.6875 65.5729 22.6875 66.2812 22C67.0104 21.3125 67.5521 20.9688 67.9062 20.9688C68.3229 20.9688 68.6979 21.1562 69.0312 21.5312C69.3854 21.8854 69.6354 22.3125 69.7812 22.8125C69.9479 23.2917 69.9896 23.7812 69.9062 24.2812C69.8438 24.7812 69.6042 25.1667 69.1875 25.4375C68.9375 25.8333 68.6354 26.2917 68.2812 26.8125C67.9479 27.3333 67.625 27.9896 67.3125 28.7812C67.0208 29.5521 66.7708 30.5 66.5625 31.625C66.3542 32.75 66.25 34.1042 66.25 35.6875C66.25 37.0417 66.3646 38.2188 66.5938 39.2188C66.8438 40.2188 67.1771 41.0625 67.5938 41.75C68.0312 42.4167 68.5208 42.9167 69.0625 43.25C69.625 43.5833 70.2188 43.75 70.8438 43.75C71.7604 43.75 72.5104 43.5312 73.0938 43.0938C73.6979 42.6354 74.2083 42.0417 74.625 41.3125C73.125 40.0208 71.9792 38.3854 71.1875 36.4062C70.4167 34.4062 70.0312 32.25 70.0312 29.9375C70.0312 28.9375 70.1354 27.9896 70.3438 27.0938C70.5729 26.1771 70.8958 25.375 71.3125 24.6875C71.75 24 72.2917 23.4583 72.9375 23.0625C73.5833 22.6458 74.3333 22.4375 75.1875 22.4375C75.9375 22.4375 76.6458 22.7083 77.3125 23.25C77.9792 23.7917 78.5625 24.5417 79.0625 25.5C79.5625 26.4583 79.9479 27.5938 80.2188 28.9062C80.5104 30.2188 80.6562 31.6458 80.6562 33.1875C80.6562 34.375 80.5833 35.5521 80.4375 36.7188C80.2917 37.8854 80.0625 39.0104 79.75 40.0938C79.9792 40.1771 80.1875 40.2292 80.375 40.25C80.5833 40.25 80.8021 40.25 81.0312 40.25C81.7188 40.25 82.3229 40.125 82.8438 39.875C83.3854 39.625 83.8438 39.2917 84.2188 38.875C84.5938 38.4583 84.8958 37.9688 85.125 37.4062C85.3542 36.8438 85.5208 36.25 85.625 35.625ZM73.4062 29.6875C73.4062 31.125 73.625 32.4896 74.0625 33.7812C74.5208 35.0729 75.1146 36.1979 75.8438 37.1562C75.9688 36.1354 76.0312 35.1562 76.0312 34.2188C76.0312 33.1354 76.0104 32.1354 75.9688 31.2188C75.9479 30.2812 75.875 29.4792 75.75 28.8125C75.6458 28.1458 75.4896 27.625 75.2812 27.25C75.0938 26.8542 74.8333 26.6562 74.5 26.6562C73.7708 26.6562 73.4062 27.6667 73.4062 29.6875Z" stroke="black" mask="url(#path-1-outside-1_280_2)"/>
<path d="M92.8125 47.9688C91.5625 47.9688 90.4271 47.75 89.4062 47.3125C88.3854 46.875 87.5104 46.2292 86.7812 45.375C86.0729 44.5 85.5208 43.4271 85.125 42.1562C84.75 40.8646 84.5625 39.375 84.5625 37.6875C84.5625 35.2292 84.9062 33.0417 85.5938 31.125C86.2812 29.1875 87.2188 27.5312 88.4062 26.1562C89.5938 24.7604 90.9688 23.6562 92.5312 22.8438C94.0938 22.0104 95.75 21.4688 97.5 21.2188V6.75C97.5 6.29167 97.4583 5.92708 97.375 5.65625C97.3125 5.38542 97.2396 5.17708 97.1562 5.03125C97.0938 4.86458 97.0208 4.73958 96.9375 4.65625C96.875 4.55208 96.8438 4.44792 96.8438 4.34375C96.8438 4.21875 96.9062 4.11458 97.0312 4.03125C97.1562 3.94792 97.3229 3.875 97.5312 3.8125C97.7396 3.75 97.9583 3.70833 98.1875 3.6875C98.4375 3.64583 98.6771 3.625 98.9062 3.625C99.9688 3.625 100.802 3.90625 101.406 4.46875C102.031 5.01042 102.344 5.66667 102.344 6.4375V40.8125C102.344 41.1667 102.385 41.5208 102.469 41.875C102.552 42.2083 102.677 42.5208 102.844 42.8125C103.031 43.0833 103.26 43.3125 103.531 43.5C103.823 43.6667 104.156 43.75 104.531 43.75C105.177 43.75 105.729 43.5208 106.188 43.0625C106.667 42.6042 107.073 42.0312 107.406 41.3438C107.76 40.6562 108.042 39.9167 108.25 39.125C108.479 38.3125 108.667 37.5521 108.812 36.8438C108.938 36.1771 109.146 35.6979 109.438 35.4062C109.729 35.0938 110.031 34.9375 110.344 34.9375C110.594 34.9375 110.854 35.0208 111.125 35.1875C111.396 35.3333 111.635 35.5312 111.844 35.7812C112.073 36.0312 112.25 36.3125 112.375 36.625C112.521 36.9375 112.594 37.25 112.594 37.5625C112.594 37.6042 112.594 37.6562 112.594 37.7188C112.594 37.7812 112.573 37.875 112.531 38C112.26 39.0625 111.885 40.1771 111.406 41.3438C110.948 42.5104 110.344 43.5833 109.594 44.5625C108.865 45.5417 107.99 46.3542 106.969 47C105.948 47.6458 104.75 47.9688 103.375 47.9688C102.271 47.9688 101.302 47.7396 100.469 47.2812C99.6354 46.8229 98.9792 46.2188 98.5 45.4688C97.7917 46.1979 96.9688 46.7917 96.0312 47.25C95.1146 47.7292 94.0417 47.9688 92.8125 47.9688ZM93.7812 43.75C94.6146 43.75 95.3333 43.5104 95.9375 43.0312C96.5625 42.5521 97.0833 41.9583 97.5 41.25V25.4375C96.4583 25.625 95.4479 25.9792 94.4688 26.5C93.5104 27 92.6562 27.7083 91.9062 28.625C91.1771 29.5417 90.5938 30.7083 90.1562 32.125C89.7188 33.5208 89.5 35.2188 89.5 37.2188C89.5 38.3854 89.6146 39.3854 89.8438 40.2188C90.0938 41.0312 90.4062 41.6979 90.7812 42.2188C91.1771 42.7396 91.6354 43.125 92.1562 43.375C92.6771 43.625 93.2188 43.75 93.7812 43.75Z" stroke="black" mask="url(#path-1-outside-1_280_2)"/>
<path d="M112.469 15.4062C111.948 15.4062 111.448 15.3021 110.969 15.0938C110.51 14.8854 110.104 14.6042 109.75 14.25C109.417 13.8958 109.146 13.4896 108.938 13.0312C108.729 12.5521 108.625 12.0417 108.625 11.5C108.625 10.9375 108.729 10.4167 108.938 9.9375C109.146 9.45833 109.417 9.05208 109.75 8.71875C110.104 8.36458 110.51 8.09375 110.969 7.90625C111.448 7.69792 111.948 7.59375 112.469 7.59375C113.031 7.59375 113.552 7.69792 114.031 7.90625C114.51 8.09375 114.917 8.36458 115.25 8.71875C115.604 9.05208 115.875 9.45833 116.062 9.9375C116.271 10.4167 116.375 10.9375 116.375 11.5C116.375 12.0417 116.271 12.5521 116.062 13.0312C115.875 13.4896 115.604 13.8958 115.25 14.25C114.917 14.6042 114.51 14.8854 114.031 15.0938C113.552 15.3021 113.031 15.4062 112.469 15.4062ZM113.938 40.8125C113.938 40.9583 113.948 41.1979 113.969 41.5312C113.99 41.8438 114.052 42.1667 114.156 42.5C114.26 42.8333 114.427 43.125 114.656 43.375C114.885 43.625 115.208 43.75 115.625 43.75C116.25 43.75 116.792 43.5208 117.25 43.0625C117.729 42.6042 118.135 42.0312 118.469 41.3438C118.823 40.6562 119.115 39.9167 119.344 39.125C119.573 38.3125 119.76 37.5521 119.906 36.8438C120.031 36.1979 120.219 35.7292 120.469 35.4375C120.74 35.1458 121.021 34.9896 121.312 34.9688C121.625 34.9271 121.927 35 122.219 35.1875C122.531 35.375 122.802 35.625 123.031 35.9375C123.281 36.2292 123.458 36.5625 123.562 36.9375C123.688 37.3125 123.708 37.6667 123.625 38C123.333 39.0625 122.948 40.1771 122.469 41.3438C122.01 42.5104 121.417 43.5833 120.688 44.5625C119.958 45.5417 119.083 46.3542 118.062 47C117.042 47.6458 115.844 47.9688 114.469 47.9688C113.615 47.9688 112.854 47.8021 112.188 47.4688C111.521 47.1562 110.958 46.7292 110.5 46.1875C110.042 45.6458 109.688 45.0104 109.438 44.2812C109.208 43.5521 109.094 42.7812 109.094 41.9688V24.875C109.094 24.2708 109.042 23.8333 108.938 23.5625C108.854 23.2917 108.812 23.0417 108.812 22.8125C108.812 22.5 108.979 22.25 109.312 22.0625C109.646 21.8542 110.042 21.75 110.5 21.75C111.562 21.75 112.396 22.0312 113 22.5938C113.625 23.1354 113.938 23.7917 113.938 24.5625V40.8125Z" stroke="black" mask="url(#path-1-outside-1_280_2)"/>
<path d="M134.875 27.5625C134.875 28.75 134.667 29.9688 134.25 31.2188C133.854 32.4688 133.25 33.6562 132.438 34.7812C131.646 35.8854 130.656 36.8854 129.469 37.7812C128.302 38.6562 126.948 39.3229 125.406 39.7812C125.615 40.3229 125.885 40.8438 126.219 41.3438C126.573 41.8229 126.99 42.2396 127.469 42.5938C127.948 42.9479 128.5 43.2292 129.125 43.4375C129.771 43.6458 130.51 43.75 131.344 43.75C132.594 43.75 133.667 43.5208 134.562 43.0625C135.458 42.5833 136.208 41.9583 136.812 41.1875C137.438 40.4167 137.938 39.5521 138.312 38.5938C138.688 37.6354 138.969 36.6667 139.156 35.6875C139.302 34.9792 139.594 34.5104 140.031 34.2812C140.49 34.0312 140.948 33.9688 141.406 34.0938C141.885 34.2188 142.292 34.4896 142.625 34.9062C142.979 35.3021 143.125 35.7812 143.062 36.3438C142.979 36.9896 142.833 37.7292 142.625 38.5625C142.438 39.3958 142.146 40.2396 141.75 41.0938C141.354 41.9479 140.844 42.7917 140.219 43.625C139.615 44.4375 138.865 45.1667 137.969 45.8125C137.073 46.4583 136.021 46.9792 134.812 47.375C133.604 47.7708 132.219 47.9688 130.656 47.9688C129.198 47.9688 127.781 47.6771 126.406 47.0938C125.052 46.5312 123.844 45.7188 122.781 44.6562C121.74 43.5729 120.896 42.25 120.25 40.6875C119.625 39.1042 119.312 37.3125 119.312 35.3125C119.312 33.2917 119.594 31.4167 120.156 29.6875C120.719 27.9375 121.458 26.4271 122.375 25.1562C123.292 23.8854 124.333 22.8958 125.5 22.1875C126.667 21.4583 127.865 21.0938 129.094 21.0938C129.99 21.0938 130.792 21.25 131.5 21.5625C132.229 21.875 132.844 22.3229 133.344 22.9062C133.844 23.4688 134.219 24.1458 134.469 24.9375C134.74 25.7292 134.875 26.6042 134.875 27.5625ZM124.562 35.125C124.562 35.3125 124.573 35.5 124.594 35.6875C124.615 35.875 124.625 36.0729 124.625 36.2812C125.417 35.9062 126.135 35.4271 126.781 34.8438C127.427 34.2604 127.979 33.5938 128.438 32.8438C128.896 32.0938 129.25 31.2812 129.5 30.4062C129.75 29.5104 129.875 28.5833 129.875 27.625C129.875 26.9167 129.75 26.3646 129.5 25.9688C129.271 25.5729 128.948 25.375 128.531 25.375C128.01 25.375 127.542 25.5521 127.125 25.9062C126.729 26.2604 126.375 26.7292 126.062 27.3125C125.771 27.875 125.521 28.5208 125.312 29.25C125.125 29.9583 124.969 30.6771 124.844 31.4062C124.719 32.1354 124.635 32.8333 124.594 33.5C124.552 34.1458 124.542 34.6875 124.562 35.125Z" stroke="black" mask="url(#path-1-outside-1_280_2)"/>
</svg>
